<svg width="600" height="600" viewBox="0 0 600 600" fill="none" xmlns="http://www.w3.org/2000/svg">
<path d="M439.421 281.774C432.672 270.062 422.642 260.598 410.55 254.507C398.036 248.276 384.209 245.137 370.242 245.325C357.4 245.184 344.699 248.276 333.356 254.273C322.576 259.989 313.39 268.188 306.547 278.26C299.798 269.64 291.362 262.378 281.8 256.944C268.208 249.307 252.788 245.418 237.181 245.606C223.073 245.465 209.153 248.838 196.733 255.444C191.858 258.021 187.265 261.113 183.047 264.674V196.413C183.141 194.211 182.812 192.056 182.016 189.995C181.219 187.933 180 186.106 178.454 184.56C176.907 183.014 175.032 181.796 172.97 181.046C170.861 180.25 168.658 179.922 166.455 180.016C162.19 179.969 158.065 181.515 154.972 184.419C153.332 185.966 152.066 187.793 151.223 189.854C150.332 191.916 149.957 194.164 150.004 196.366V334.106C150.191 349.332 154.316 364.231 162.002 377.349C169.455 390.045 180.188 400.539 193.077 407.754C206.481 415.25 221.62 419.092 236.993 418.952C252.601 419.186 268.021 415.25 281.613 407.661C294.642 400.258 305.422 389.53 312.828 376.599C320.514 363.059 324.451 347.786 324.264 332.232V314.804C324.17 308.245 326.138 301.826 329.888 296.485C334.013 290.723 339.59 286.084 346.105 283.18C353.651 279.76 361.9 278.073 370.196 278.214C378.632 278.073 386.975 279.853 394.614 283.461C401.41 286.787 407.082 292.034 410.878 298.593C415.284 306.792 417.393 316.022 416.971 325.298V402.507C416.971 406.864 418.705 411.034 421.799 414.079C424.892 417.171 429.063 418.905 433.469 418.905C437.875 418.905 442.046 417.171 445.139 414.079C448.233 410.987 449.967 406.817 449.967 402.507V325.017C450.389 309.931 446.78 294.986 439.468 281.774H439.421ZM209.434 284.351C215.621 280.697 222.511 278.307 229.682 277.323C236.806 276.34 244.117 276.761 251.054 278.588C258.038 280.416 264.552 283.601 270.27 287.958C275.988 292.315 280.769 297.797 284.378 303.981C288.643 311.43 291.08 319.77 291.455 328.343V332.794C291.455 333.263 291.455 333.684 291.455 334.153C291.315 343.335 288.877 352.377 284.331 360.389C279.691 368.494 272.989 375.287 264.88 380.066C256.397 384.798 246.836 387.281 237.087 387.281C227.338 387.281 217.777 384.798 209.294 380.066C201.138 375.381 194.436 368.588 189.89 360.389C185.109 351.675 182.672 341.93 182.812 331.998C182.625 322.112 185.062 312.414 189.89 303.747C194.53 295.642 201.232 288.942 209.34 284.304L209.434 284.351Z" fill="url(#paint0_linear_66_152)"/>
<defs>
<linearGradient id="paint0_linear_66_152" x1="392.292" y1="206.653" x2="187.419" y2="375.973" gradientUnits="userSpaceOnUse">
<stop stop-color="#064B8D"/>
<stop offset="1" stop-color="#5C2134"/>
</linearGradient>
</defs>
</svg>
