<svg width="553" height="424" viewBox="0 0 553 424" fill="none" xmlns="http://www.w3.org/2000/svg">
<path d="M376.763 156.683C372.026 148.122 364.684 141.226 355.921 136.945C346.921 132.427 336.974 130.049 327.026 130.287C317.789 130.287 308.789 132.427 300.5 136.707C292.684 140.75 286.053 146.695 281.316 154.067C276.342 147.884 270.421 142.652 263.553 138.61C253.842 133.14 242.711 130.287 231.579 130.287C221.395 130.287 211.447 132.665 202.447 137.421C198.895 139.323 195.579 141.463 192.5 144.079V94.8536C192.5 93.189 192.263 91.7622 191.789 90.0975C191.316 88.6707 190.368 87.2439 189.184 86.0549C188 84.8658 186.816 84.1524 185.158 83.439C183.737 82.9634 182.079 82.7256 180.421 82.7256C177.342 82.7256 174.5 83.9146 172.132 85.817C170.947 87.0061 170 88.1951 169.526 89.8597C168.816 91.2866 168.579 92.9512 168.579 94.6158V194.494C168.816 205.433 171.658 216.372 177.105 225.884C182.553 235.158 190.132 242.768 199.368 248C209.079 253.469 219.974 256.323 230.868 256.085C242 256.323 253.132 253.469 262.842 247.762C272.079 242.293 279.895 234.683 285.342 225.171C290.789 215.421 293.632 204.244 293.632 193.067C293.632 192.116 293.632 190.927 293.632 189.976V180.463C293.632 175.707 295.053 170.951 297.658 167.146C300.5 162.866 304.526 159.537 309.263 157.396C314.71 155.018 320.632 153.591 326.553 153.829C332.71 153.829 338.632 155.018 344.079 157.634C349.053 160.012 353.079 163.817 355.684 168.573C358.763 174.518 360.421 181.177 359.947 187.835V243.719C359.947 246.811 361.132 249.902 363.5 252.043C365.632 254.183 368.711 255.61 371.789 255.61C374.868 255.61 377.947 254.421 380.079 252.043C382.211 249.665 383.632 246.811 383.632 243.719V188.073C384.816 177.134 382.21 166.195 376.763 156.683ZM211.684 158.585C216.184 155.969 221.158 154.305 226.132 153.591C231.342 152.878 236.553 153.116 241.526 154.543C246.5 155.969 251.237 158.11 255.263 161.439C259.289 164.53 262.842 168.573 265.447 173.091C268.526 178.561 270.184 184.506 270.421 190.689V194.018C270.421 194.256 270.421 194.732 270.421 194.969C270.421 201.628 268.526 208.287 265.21 213.994C261.895 219.939 257.158 224.695 251.237 228.262C245.079 231.591 238.211 233.494 231.342 233.494C224.474 233.494 217.605 231.591 211.447 228.262C205.526 224.933 200.789 219.939 197.474 213.994C193.921 207.573 192.263 200.677 192.5 193.305C192.263 186.171 194.158 179.037 197.474 172.854C201.026 166.671 206 161.915 211.684 158.585Z" fill="black"/>
<path d="M87.8121 343.598C86.6804 343.598 85.6996 343.22 84.9451 342.428C84.1529 341.636 83.7756 340.693 83.7756 339.561V286.936C83.7756 285.766 84.1529 284.786 84.9451 284.031C85.7373 283.277 86.6804 282.899 87.8121 282.899H106.372C109.881 282.899 112.974 283.578 115.653 284.974C118.331 286.332 120.406 288.256 121.953 290.671C123.499 293.123 124.254 295.914 124.254 299.045C124.254 301.573 123.575 303.874 122.179 305.911C120.821 307.948 118.935 309.57 116.558 310.778C119.991 311.608 122.707 313.23 124.782 315.682C126.857 318.134 127.875 321.303 127.875 325.226C127.875 328.81 127.045 331.979 125.348 334.695C123.65 337.449 121.311 339.599 118.331 341.183C115.313 342.768 111.88 343.56 107.995 343.56H87.8121V343.598ZM91.8486 307.835H106.372C109.315 307.835 111.729 307.118 113.653 305.647C115.539 304.214 116.482 301.988 116.482 299.045C116.482 296.103 115.539 293.915 113.653 292.481C111.767 291.048 109.353 290.331 106.372 290.331H91.8486V307.835ZM91.8486 336.128H108.032C110.409 336.128 112.521 335.713 114.332 334.883C116.143 334.053 117.576 332.846 118.595 331.224C119.614 329.602 120.142 327.64 120.142 325.226C120.142 323 119.614 321.152 118.595 319.718C117.576 318.285 116.143 317.153 114.332 316.398C112.521 315.644 110.409 315.267 108.032 315.267H91.8486V336.091V336.128Z" fill="black"/>
<path d="M157.149 343.598C152.962 343.598 149.265 342.692 146.021 340.844C142.814 338.995 140.286 336.468 138.438 333.223C136.59 329.979 135.684 326.282 135.684 322.057C135.684 317.832 136.59 314.06 138.438 310.815C140.286 307.571 142.814 305.044 146.021 303.195C149.227 301.347 152.924 300.441 157.149 300.441C161.374 300.441 164.958 301.347 168.202 303.195C171.409 305.044 173.936 307.571 175.785 310.815C177.633 314.06 178.539 317.794 178.539 322.057C178.539 326.32 177.633 329.979 175.823 333.223C174.012 336.468 171.484 338.995 168.278 340.844C165.071 342.692 161.374 343.598 157.149 343.598ZM157.149 336.619C159.828 336.619 162.242 336.015 164.317 334.77C166.392 333.525 168.014 331.828 169.183 329.64C170.353 327.452 170.919 324.962 170.919 322.095C170.919 319.228 170.353 316.738 169.183 314.512C168.014 312.324 166.392 310.589 164.317 309.344C162.242 308.099 159.865 307.496 157.149 307.496C154.433 307.496 152.056 308.137 149.982 309.344C147.907 310.589 146.285 312.324 145.077 314.512C143.87 316.7 143.304 319.228 143.304 322.095C143.304 324.962 143.908 327.452 145.077 329.64C146.285 331.828 147.907 333.525 149.982 334.77C152.056 336.015 154.433 336.619 157.149 336.619Z" fill="black"/>
<path d="M207.813 343.598C203.625 343.598 199.928 342.692 196.684 340.844C193.478 338.995 190.95 336.468 189.102 333.223C187.253 329.979 186.348 326.282 186.348 322.057C186.348 317.832 187.253 314.06 189.102 310.815C190.95 307.571 193.478 305.044 196.684 303.195C199.891 301.347 203.588 300.441 207.813 300.441C212.038 300.441 215.622 301.347 218.866 303.195C222.073 305.044 224.6 307.571 226.449 310.815C228.297 314.06 229.202 317.794 229.202 322.057C229.202 326.32 228.297 329.979 226.486 333.223C224.675 336.468 222.148 338.995 218.941 340.844C215.735 342.692 212.038 343.598 207.813 343.598ZM207.813 336.619C210.491 336.619 212.906 336.015 214.98 334.77C217.055 333.525 218.677 331.828 219.847 329.64C221.016 327.452 221.582 324.962 221.582 322.095C221.582 319.228 221.016 316.738 219.847 314.512C218.677 312.324 217.055 310.589 214.98 309.344C212.906 308.099 210.529 307.496 207.813 307.496C205.097 307.496 202.72 308.137 200.645 309.344C198.57 310.589 196.948 312.324 195.741 314.512C194.534 316.7 193.968 319.228 193.968 322.095C193.968 324.962 194.572 327.452 195.741 329.64C196.948 331.828 198.57 333.525 200.645 334.77C202.72 336.015 205.097 336.619 207.813 336.619Z" fill="black"/>
<path d="M259.91 336.92C259.268 336.204 258.476 335.826 257.533 335.826H254.892C253.233 335.826 251.837 335.11 250.705 333.714C249.573 332.318 249.008 330.583 249.008 328.508V309.306H255.609C256.703 309.306 257.571 309.004 258.25 308.363C258.929 307.722 259.268 306.967 259.268 306.024C259.268 305.006 258.929 304.176 258.25 303.534C257.571 302.893 256.703 302.591 255.609 302.591H249.008V291.387C249.008 290.256 248.63 289.312 247.914 288.596C247.197 287.879 246.254 287.502 245.122 287.502C243.99 287.502 243.047 287.879 242.33 288.596C241.614 289.312 241.236 290.256 241.236 291.387V302.591H237.653C236.559 302.591 235.691 302.893 235.012 303.534C234.333 304.138 233.993 304.968 233.993 306.024C233.993 306.967 234.333 307.722 235.012 308.363C235.691 308.967 236.559 309.306 237.653 309.306H241.236V328.508C241.236 331.375 241.84 333.94 243.009 336.204C244.179 338.467 245.839 340.278 247.914 341.598C249.988 342.919 252.327 343.598 254.892 343.598H256.288C257.646 343.598 258.74 343.22 259.608 342.504C260.476 341.787 260.891 340.844 260.891 339.712C260.891 338.58 260.551 337.637 259.91 336.92Z" fill="black"/>
<path d="M274.794 343.598C273.662 343.598 272.719 343.22 271.965 342.428C271.21 341.636 270.833 340.693 270.833 339.561V286.936C270.833 285.729 271.21 284.786 271.965 284.031C272.719 283.277 273.662 282.899 274.794 282.899C276.039 282.899 277.057 283.39 277.887 284.371L311.764 329.451V286.936C311.764 285.729 312.141 284.786 312.933 284.031C313.725 283.277 314.668 282.899 315.8 282.899C316.932 282.899 317.95 283.277 318.667 284.031C319.384 284.786 319.761 285.766 319.761 286.936V339.561C319.761 340.693 319.384 341.674 318.667 342.428C317.95 343.22 316.97 343.598 315.8 343.598C315.272 343.598 314.706 343.484 314.14 343.258C313.537 343.032 313.046 342.692 312.707 342.202L278.83 297.121V339.561C278.83 340.693 278.453 341.674 277.699 342.428C276.944 343.22 275.963 343.598 274.794 343.598Z" fill="black"/>
<path d="M349.035 343.598C344.848 343.598 341.151 342.692 337.907 340.844C334.7 338.995 332.172 336.468 330.324 333.223C328.475 329.979 327.57 326.282 327.57 322.057C327.57 317.832 328.475 314.06 330.324 310.815C332.172 307.571 334.7 305.044 337.907 303.195C341.113 301.347 344.81 300.441 349.035 300.441C353.26 300.441 356.844 301.347 360.088 303.195C363.295 305.044 365.822 307.571 367.671 310.815C369.519 314.06 370.425 317.794 370.425 322.057C370.425 326.32 369.519 329.979 367.709 333.223C365.898 336.468 363.37 338.995 360.164 340.844C356.957 342.692 353.26 343.598 349.035 343.598ZM349.035 336.619C351.714 336.619 354.128 336.015 356.203 334.77C358.278 333.525 359.9 331.828 361.069 329.64C362.239 327.452 362.805 324.962 362.805 322.095C362.805 319.228 362.239 316.738 361.069 314.512C359.9 312.324 358.278 310.589 356.203 309.344C354.128 308.099 351.751 307.496 349.035 307.496C346.319 307.496 343.942 308.137 341.868 309.344C339.793 310.589 338.171 312.324 336.963 314.512C335.756 316.7 335.19 319.228 335.19 322.095C335.19 324.962 335.794 327.452 336.963 329.64C338.171 331.828 339.793 333.525 341.868 334.77C343.942 336.015 346.319 336.619 349.035 336.619Z" fill="black"/>
<path d="M399.661 343.598C395.624 343.598 391.965 342.655 388.759 340.768C385.514 338.882 382.949 336.317 381.063 333.035C379.177 329.753 378.234 326.094 378.234 321.982C378.234 317.87 379.101 314.211 380.837 310.966C382.572 307.722 384.949 305.157 387.966 303.271C390.984 301.384 394.38 300.441 398.152 300.441C401.208 300.441 404.037 301.083 406.64 302.327C409.243 303.61 411.393 305.308 413.166 307.496V286.559C413.166 285.352 413.543 284.408 414.298 283.692C415.052 282.975 415.996 282.598 417.127 282.598C418.259 282.598 419.278 282.975 419.994 283.692C420.711 284.408 421.088 285.389 421.088 286.559V321.982C421.088 326.094 420.145 329.753 418.259 333.035C416.373 336.317 413.808 338.882 410.601 340.768C407.394 342.655 403.773 343.598 399.736 343.598H399.661ZM399.661 336.619C402.302 336.619 404.678 335.977 406.753 334.732C408.828 333.45 410.45 331.715 411.657 329.489C412.864 327.263 413.43 324.773 413.43 322.019C413.43 319.266 412.827 316.738 411.657 314.55C410.45 312.362 408.828 310.664 406.753 309.382C404.678 308.099 402.339 307.496 399.661 307.496C396.983 307.496 394.719 308.137 392.644 309.382C390.532 310.664 388.872 312.362 387.665 314.55C386.458 316.738 385.854 319.228 385.854 322.019C385.854 324.811 386.458 327.263 387.665 329.489C388.872 331.715 390.532 333.45 392.644 334.732C394.757 336.015 397.096 336.619 399.661 336.619Z" fill="black"/>
<path d="M468.206 323.792C468.885 323.151 469.224 322.321 469.224 321.34C469.224 317.266 468.47 313.645 466.923 310.514C465.377 307.382 463.188 304.93 460.284 303.12C457.379 301.347 453.908 300.441 449.872 300.441C445.835 300.441 442.138 301.347 439.007 303.195C435.838 305.044 433.386 307.571 431.576 310.815C429.803 314.06 428.897 317.794 428.897 322.057C428.897 326.32 429.84 329.979 431.727 333.223C433.613 336.468 436.216 338.995 439.573 340.844C442.931 342.692 446.741 343.598 451.041 343.598C453.418 343.598 455.908 343.145 458.548 342.277C461.151 341.41 463.339 340.24 465.112 338.844C465.98 338.165 466.395 337.373 466.357 336.43C466.32 335.487 465.829 334.657 464.962 333.865C464.282 333.299 463.49 333.035 462.585 333.035C461.68 333.035 460.85 333.374 460.057 333.94C459.039 334.732 457.643 335.411 455.983 336.015C454.286 336.619 452.663 336.92 451.041 336.92C448.099 336.92 445.458 336.279 443.195 334.959C440.931 333.676 439.12 331.903 437.838 329.677C436.97 328.206 436.404 326.546 436.14 324.773H465.678C466.697 324.773 467.565 324.434 468.244 323.792H468.206ZM442.289 309.08C444.402 307.797 446.929 307.118 449.872 307.118C452.475 307.118 454.663 307.722 456.474 308.891C458.284 310.099 459.68 311.721 460.661 313.758C461.34 315.191 461.717 316.813 461.944 318.549H436.216C436.48 317.078 436.895 315.682 437.498 314.399C438.592 312.136 440.177 310.363 442.289 309.08Z" fill="black"/>
</svg>
