<svg width="832" height="331" viewBox="0 0 832 331" fill="none" xmlns="http://www.w3.org/2000/svg">
<rect width="832" height="331" fill="white"/>
<path d="M286.667 153.14C282 144.796 274.667 138.121 266 133.783C257 129.444 247.333 127.108 237.333 127.108C228.333 127.108 219 129.11 211 133.449C203.333 137.454 196.667 143.461 192 150.47C187.333 144.463 181.333 139.123 174.333 135.451C164.667 130.111 153.667 127.108 142.667 127.441C132.667 127.441 122.667 129.778 114 134.45C110.667 136.453 107.333 138.455 104.333 141.125V92.3976C104.333 90.7288 104 89.3938 103.667 87.7251C103 86.3901 102.333 85.0551 101 83.7201C100 82.7188 98.6667 81.7176 97 81.0501C95.6667 80.3826 94 80.3826 92.3334 80.3826C89.3334 80.3826 86.3334 81.3838 84 83.3863C83 84.3876 82 85.7226 81.3334 87.3913C80.6667 88.7263 80.3334 90.3951 80.3334 92.0638V190.187C80.3334 200.867 83.3334 211.547 89 220.892C94.3334 229.903 102 237.579 111 242.585C120.667 247.925 131.333 250.595 142.333 250.595C153.333 250.595 164.333 247.925 174 242.585C183.333 237.245 191 229.569 196.333 220.558C201.667 210.879 204.667 199.865 204.333 188.851C204.333 187.85 204.333 186.849 204.333 185.848V176.503C204.333 171.83 205.667 167.158 208.333 163.487C211.333 159.482 215.333 156.144 220 154.142C225.333 151.805 231.333 150.47 237 150.47C243 150.47 249 151.805 254.333 154.142C259.333 156.478 263.333 160.149 266 164.821C269 170.829 270.667 177.17 270.333 183.845V238.914C270.333 241.918 271.667 244.921 273.667 247.258C276 249.594 279 250.595 282 250.595C285 250.595 288 249.26 290.333 247.258C292.667 244.921 293.667 242.251 293.667 238.914V184.179C294.667 173.499 292 162.819 286.667 153.14ZM123.333 155.143C127.667 152.473 132.667 150.804 137.667 150.137C142.667 149.469 148 149.803 153 151.138C158 152.473 162.667 154.809 166.667 157.813C170.667 160.816 174 164.822 176.667 169.16C179.667 174.5 181.333 180.508 181.667 186.515V189.853C181.667 190.186 181.667 190.52 181.667 190.854C181.667 197.529 179.667 203.87 176.667 209.544C173.333 215.218 168.667 220.224 163 223.562C157 226.899 150.333 228.568 143.333 228.568C136.333 228.568 129.667 226.899 123.667 223.562C118 220.224 113 215.218 110 209.544C106.667 203.203 105 196.528 105 189.185C105 182.177 106.667 175.168 110 169.16C112.667 163.153 117.333 158.48 123.333 155.143Z" fill="black"/>
<path d="M353.128 219.89C351.996 219.89 351.016 219.513 350.261 218.721C349.469 217.929 349.092 216.986 349.092 215.854V163.229C349.092 162.059 349.469 161.078 350.261 160.324C351.053 159.569 351.996 159.192 353.128 159.192H371.688C375.197 159.192 378.29 159.871 380.969 161.267C383.647 162.625 385.722 164.549 387.269 166.963C388.815 169.415 389.57 172.207 389.57 175.338C389.57 177.866 388.891 180.167 387.495 182.204C386.137 184.241 384.251 185.863 381.874 187.07C385.307 187.9 388.023 189.522 390.098 191.974C392.173 194.427 393.191 197.595 393.191 201.519C393.191 205.102 392.361 208.271 390.664 210.987C388.966 213.741 386.627 215.892 383.647 217.476C380.629 219.06 377.196 219.853 373.311 219.853H353.128V219.89ZM357.165 184.128H371.688C374.631 184.128 377.045 183.411 378.969 181.94C380.855 180.506 381.799 178.281 381.799 175.338C381.799 172.396 380.855 170.208 378.969 168.774C377.083 167.341 374.669 166.624 371.688 166.624H357.165V184.128ZM357.165 212.421H373.348C375.725 212.421 377.837 212.006 379.648 211.176C381.459 210.346 382.893 209.139 383.911 207.517C384.93 205.895 385.458 203.933 385.458 201.519C385.458 199.293 384.93 197.444 383.911 196.011C382.893 194.577 381.459 193.446 379.648 192.691C377.837 191.937 375.725 191.559 373.348 191.559H357.165V212.383V212.421Z" fill="black"/>
<path d="M422.465 219.89C418.278 219.89 414.581 218.985 411.337 217.136C408.13 215.288 405.603 212.76 403.754 209.516C401.906 206.272 401 202.575 401 198.35C401 194.125 401.906 190.352 403.754 187.108C405.603 183.864 408.13 181.336 411.337 179.488C414.543 177.639 418.24 176.734 422.465 176.734C426.69 176.734 430.274 177.639 433.518 179.488C436.725 181.336 439.253 183.864 441.101 187.108C442.95 190.352 443.855 194.087 443.855 198.35C443.855 202.613 442.95 206.272 441.139 209.516C439.328 212.76 436.8 215.288 433.594 217.136C430.387 218.985 426.69 219.89 422.465 219.89ZM422.465 212.911C425.144 212.911 427.558 212.308 429.633 211.063C431.708 209.818 433.33 208.12 434.499 205.932C435.669 203.744 436.235 201.255 436.235 198.388C436.235 195.521 435.669 193.031 434.499 190.805C433.33 188.617 431.708 186.882 429.633 185.637C427.558 184.392 425.181 183.788 422.465 183.788C419.749 183.788 417.373 184.43 415.298 185.637C413.223 186.882 411.601 188.617 410.394 190.805C409.186 192.993 408.621 195.521 408.621 198.388C408.621 201.255 409.224 203.744 410.394 205.932C411.601 208.12 413.223 209.818 415.298 211.063C417.373 212.308 419.749 212.911 422.465 212.911Z" fill="black"/>
<path d="M473.129 219.89C468.941 219.89 465.244 218.985 462 217.136C458.794 215.288 456.266 212.76 454.418 209.516C452.569 206.272 451.664 202.575 451.664 198.35C451.664 194.125 452.569 190.352 454.418 187.108C456.266 183.864 458.794 181.336 462 179.488C465.207 177.639 468.904 176.734 473.129 176.734C477.354 176.734 480.938 177.639 484.182 179.488C487.388 181.336 489.916 183.864 491.764 187.108C493.613 190.352 494.518 194.087 494.518 198.35C494.518 202.613 493.613 206.272 491.802 209.516C489.991 212.76 487.464 215.288 484.257 217.136C481.051 218.985 477.354 219.89 473.129 219.89ZM473.129 212.911C475.807 212.911 478.222 212.308 480.296 211.063C482.371 209.818 483.993 208.12 485.163 205.932C486.332 203.744 486.898 201.255 486.898 198.388C486.898 195.521 486.332 193.031 485.163 190.805C483.993 188.617 482.371 186.882 480.296 185.637C478.222 184.392 475.845 183.788 473.129 183.788C470.413 183.788 468.036 184.43 465.961 185.637C463.886 186.882 462.264 188.617 461.057 190.805C459.85 192.993 459.284 195.521 459.284 198.388C459.284 201.255 459.888 203.744 461.057 205.932C462.264 208.12 463.886 209.818 465.961 211.063C468.036 212.308 470.413 212.911 473.129 212.911Z" fill="black"/>
<path d="M525.226 213.213C524.585 212.496 523.792 212.119 522.849 212.119H520.209C518.549 212.119 517.153 211.402 516.021 210.007C514.889 208.611 514.324 206.875 514.324 204.801V185.599H520.925C522.019 185.599 522.887 185.297 523.566 184.656C524.245 184.015 524.585 183.26 524.585 182.317C524.585 181.298 524.245 180.469 523.566 179.827C522.887 179.186 522.019 178.884 520.925 178.884H514.324V167.68C514.324 166.548 513.946 165.605 513.23 164.888C512.513 164.172 511.57 163.794 510.438 163.794C509.306 163.794 508.363 164.172 507.646 164.888C506.93 165.605 506.552 166.548 506.552 167.68V178.884H502.969C501.875 178.884 501.007 179.186 500.328 179.827C499.649 180.431 499.309 181.261 499.309 182.317C499.309 183.26 499.649 184.015 500.328 184.656C501.007 185.259 501.875 185.599 502.969 185.599H506.552V204.801C506.552 207.668 507.156 210.233 508.325 212.496C509.495 214.76 511.155 216.571 513.23 217.891C515.304 219.211 517.643 219.89 520.209 219.89H521.604C522.962 219.89 524.056 219.513 524.924 218.796C525.792 218.08 526.207 217.136 526.207 216.005C526.207 214.873 525.867 213.93 525.226 213.213Z" fill="black"/>
<path d="M540.11 219.89C538.978 219.89 538.035 219.513 537.281 218.721C536.526 217.929 536.149 216.986 536.149 215.854V163.229C536.149 162.021 536.526 161.078 537.281 160.324C538.035 159.569 538.978 159.192 540.11 159.192C541.355 159.192 542.374 159.683 543.203 160.663L577.08 205.744V163.229C577.08 162.021 577.457 161.078 578.249 160.324C579.041 159.569 579.985 159.192 581.116 159.192C582.248 159.192 583.267 159.569 583.983 160.324C584.7 161.078 585.077 162.059 585.077 163.229V215.854C585.077 216.986 584.7 217.966 583.983 218.721C583.267 219.513 582.286 219.89 581.116 219.89C580.588 219.89 580.022 219.777 579.456 219.551C578.853 219.324 578.362 218.985 578.023 218.495L544.147 173.414V215.854C544.147 216.986 543.769 217.966 543.015 218.721C542.26 219.513 541.28 219.89 540.11 219.89Z" fill="black"/>
<path d="M614.351 219.89C610.164 219.89 606.467 218.985 603.223 217.136C600.016 215.288 597.489 212.76 595.64 209.516C593.792 206.272 592.886 202.575 592.886 198.35C592.886 194.125 593.792 190.352 595.64 187.108C597.489 183.864 600.016 181.336 603.223 179.488C606.429 177.639 610.126 176.734 614.351 176.734C618.576 176.734 622.16 177.639 625.404 179.488C628.611 181.336 631.139 183.864 632.987 187.108C634.836 190.352 635.741 194.087 635.741 198.35C635.741 202.613 634.836 206.272 633.025 209.516C631.214 212.76 628.686 215.288 625.48 217.136C622.273 218.985 618.576 219.89 614.351 219.89ZM614.351 212.911C617.03 212.911 619.444 212.308 621.519 211.063C623.594 209.818 625.216 208.12 626.385 205.932C627.555 203.744 628.121 201.255 628.121 198.388C628.121 195.521 627.555 193.031 626.385 190.805C625.216 188.617 623.594 186.882 621.519 185.637C619.444 184.392 617.067 183.788 614.351 183.788C611.635 183.788 609.259 184.43 607.184 185.637C605.109 186.882 603.487 188.617 602.28 190.805C601.072 192.993 600.507 195.521 600.507 198.388C600.507 201.255 601.11 203.744 602.28 205.932C603.487 208.12 605.109 209.818 607.184 211.063C609.259 212.308 611.635 212.911 614.351 212.911Z" fill="black"/>
<path d="M664.977 219.89C660.941 219.89 657.281 218.947 654.075 217.061C650.83 215.175 648.265 212.61 646.379 209.328C644.493 206.046 643.55 202.386 643.55 198.274C643.55 194.162 644.417 190.503 646.153 187.259C647.888 184.015 650.265 181.449 653.283 179.563C656.3 177.677 659.696 176.734 663.468 176.734C666.524 176.734 669.353 177.375 671.956 178.62C674.559 179.903 676.709 181.6 678.482 183.788V162.851C678.482 161.644 678.86 160.701 679.614 159.984C680.368 159.268 681.312 158.89 682.443 158.89C683.575 158.89 684.594 159.268 685.31 159.984C686.027 160.701 686.404 161.682 686.404 162.851V198.274C686.404 202.386 685.461 206.046 683.575 209.328C681.689 212.61 679.124 215.175 675.917 217.061C672.71 218.947 669.089 219.89 665.052 219.89H664.977ZM664.977 212.911C667.618 212.911 669.994 212.27 672.069 211.025C674.144 209.743 675.766 208.007 676.973 205.782C678.18 203.556 678.746 201.066 678.746 198.312C678.746 195.558 678.143 193.031 676.973 190.843C675.766 188.655 674.144 186.957 672.069 185.675C669.994 184.392 667.655 183.788 664.977 183.788C662.299 183.788 660.035 184.43 657.96 185.675C655.848 186.957 654.188 188.655 652.981 190.843C651.774 193.031 651.17 195.521 651.17 198.312C651.17 201.104 651.774 203.556 652.981 205.782C654.188 208.007 655.848 209.743 657.96 211.025C660.073 212.308 662.412 212.911 664.977 212.911Z" fill="black"/>
<path d="M733.522 200.085C734.201 199.444 734.54 198.614 734.54 197.633C734.54 193.559 733.786 189.937 732.239 186.806C730.693 183.675 728.505 181.223 725.6 179.412C722.695 177.639 719.224 176.734 715.188 176.734C711.151 176.734 707.454 177.639 704.323 179.488C701.155 181.336 698.702 183.864 696.892 187.108C695.119 190.352 694.213 194.087 694.213 198.35C694.213 202.613 695.156 206.272 697.043 209.516C698.929 212.76 701.532 215.288 704.889 217.136C708.247 218.985 712.057 219.89 716.357 219.89C718.734 219.89 721.224 219.438 723.864 218.57C726.467 217.702 728.655 216.533 730.428 215.137C731.296 214.458 731.711 213.666 731.673 212.723C731.636 211.78 731.145 210.95 730.278 210.158C729.599 209.592 728.806 209.328 727.901 209.328C726.996 209.328 726.166 209.667 725.373 210.233C724.355 211.025 722.959 211.704 721.299 212.308C719.602 212.911 717.979 213.213 716.357 213.213C713.415 213.213 710.774 212.572 708.511 211.252C706.247 209.969 704.437 208.196 703.154 205.97C702.286 204.499 701.72 202.839 701.456 201.066H730.994C732.013 201.066 732.881 200.726 733.56 200.085H733.522ZM707.605 185.373C709.718 184.09 712.245 183.411 715.188 183.411C717.791 183.411 719.979 184.015 721.79 185.184C723.6 186.391 724.996 188.013 725.977 190.051C726.656 191.484 727.033 193.106 727.26 194.841H701.532C701.796 193.37 702.211 191.974 702.814 190.692C703.908 188.428 705.493 186.655 707.605 185.373Z" fill="black"/>
</svg>
