<?xml version="1.0" encoding="UTF-8"?>
<svg id="Capa_2" data-name="Capa 2" xmlns="http://www.w3.org/2000/svg" viewBox="0 0 567.89 564.65">
  <defs>
    <style>
      .cls-1 {
        opacity: .9;
      }

      .cls-2 {
        fill: rgba(255, 255, 255, .6);
      }

      .cls-3 {
        fill: none;
        stroke: #fff;
        stroke-miterlimit: 10;
        stroke-width: .9px;
      }

      .cls-4, .cls-5 {
        fill: #fff;
      }

      .cls-6 {
        opacity: .3;
      }

      .cls-5 {
        fill-rule: evenodd;
      }

      .cls-7 {
        fill: #1e1838;
      }

      .cls-8 {
        fill: #604895;
      }

      .cls-9 {
        fill: rgba(255, 255, 255, .2);
      }

      .cls-10 {
        fill: #0d1117;
      }

      .cls-11 {
        fill: #d24f95;
      }

      .cls-12 {
        fill: #31b2c7;
      }
    </style>
  </defs>
  <g id="Layer_1" data-name="Layer 1">
    <g>
      <g class="cls-6">
        <g>
          <path class="cls-3" d="M35.9,145.6l16.87-24.94c2.09-3.1,4.16-5.42,6.19-6.99,2.03-1.56,4.14-2.56,6.33-3,1.34-.27,2.75-.27,4.22-.02,1.48.26,2.97.89,4.47,1.91l.13.09c2.64,1.79,4.28,3.95,4.91,6.48.64,2.53.56,5.29-.24,8.28,2.8-2.34,5.6-3.81,8.39-4.41,2.79-.6,5.69.12,8.71,2.16l.13.09c1.76,1.19,3.14,2.65,4.14,4.38,1,1.73,1.55,3.68,1.66,5.86.11,2.18-.25,4.55-1.1,7.11-.84,2.56-2.21,5.24-4.11,8.04l-16.73,24.72-43.97-29.75ZM67.38,136.3c2.12-3.14,2.18-5.39.17-6.75l-.13-.08c-2.01-1.36-4.09-.45-6.24,2.73l-4.35,6.42,6.16,4.17,4.39-6.49ZM83.61,145.89c1.09-1.61,1.62-3.03,1.6-4.25-.03-1.22-.52-2.16-1.48-2.81l-.13-.09c-.96-.65-2.01-.77-3.14-.36-1.13.41-2.24,1.42-3.33,3.03l-5.08,7.51,6.53,4.42,5.04-7.44Z"/>
          <path class="cls-3" d="M132.42,112.6c-3,2.64-6.02,4.69-9.08,6.13-3.06,1.45-6.12,2.18-9.19,2.18-3.07,0-6.11-.75-9.12-2.28-3.01-1.52-5.98-3.93-8.88-7.23l-19.36-21.97,13.72-12.09,19.21,21.79c2.17,2.47,4.34,3.74,6.5,3.83,2.16.09,4.14-.67,5.95-2.26,1.84-1.63,2.88-3.47,3.12-5.53.23-2.06-.72-4.3-2.86-6.73l-19.46-22.08,13.72-12.09,19.11,21.68c3.01,3.41,5.09,6.74,6.23,9.98,1.15,3.24,1.51,6.38,1.1,9.44-.41,3.06-1.55,6.03-3.41,8.92-1.86,2.89-4.29,5.65-7.28,8.29Z"/>
          <path class="cls-3" d="M132.78,44.67l15.48-9.14,27.01,45.71-15.48,9.14-27.01-45.71Z"/>
          <path class="cls-3" d="M164.35,26.67l16.78-6.44,13.59,35.4,23.59-9.06,5.44,14.16-40.37,15.5-19.03-49.57Z"/>
          <path class="cls-3" d="M222.91,6.2l20.41-2.66c5.28-.69,9.99-.68,14.14.03,4.15.71,7.69,2.02,10.62,3.93,2.93,1.91,5.27,4.37,7,7.39,1.73,3.01,2.86,6.47,3.37,10.38l.02.15c.51,3.91.3,7.58-.62,11.02-.92,3.44-2.59,6.51-5,9.22-2.41,2.71-5.55,4.98-9.41,6.81-3.87,1.83-8.49,3.1-13.87,3.8l-19.8,2.58-6.86-52.65ZM248.56,40.8c4.11-.54,7.26-1.83,9.45-3.87,2.19-2.04,3.03-4.97,2.53-8.78l-.02-.15c-.5-3.81-2.06-6.42-4.7-7.84-2.64-1.42-6.01-1.86-10.13-1.32l-2.97.39,2.86,21.96,2.97-.39Z"/>
          <path class="cls-3" d="M293.17.48l17.94,1.08-3.2,53-17.94-1.08,3.2-53Z"/>
          <path class="cls-3" d="M330.54,2.88l16.28,4.23,12.62,27.49,5.9-22.68,17.25,4.48-13.36,51.39-15.46-4.02-13.17-28.73-6.16,23.71-17.25-4.48,13.36-51.39Z"/>
          <path class="cls-3" d="M401.41,86.36c-3.65-2.08-6.73-4.6-9.26-7.56-2.53-2.96-4.38-6.17-5.55-9.63-1.18-3.47-1.6-7.06-1.28-10.77.32-3.72,1.5-7.35,3.53-10.91l.08-.13c1.96-3.42,4.42-6.24,7.39-8.45,2.97-2.21,6.22-3.72,9.77-4.56,3.54-.83,7.22-.96,11.05-.37,3.82.58,7.58,1.93,11.27,4.03,4.05,2.31,7.33,5,9.85,8.07,2.52,3.07,4.42,6.43,5.7,10.07l-14.68,5.42c-.83-2.16-1.89-4.08-3.18-5.74-1.29-1.67-2.91-3.06-4.87-4.18-1.51-.86-3.07-1.39-4.67-1.58-1.6-.19-3.15-.06-4.63.37-1.49.43-2.86,1.16-4.12,2.19-1.26,1.03-2.35,2.33-3.25,3.91l-.08.13c-.93,1.62-1.5,3.28-1.72,4.95-.22,1.68-.12,3.28.31,4.81.43,1.52,1.17,2.94,2.22,4.24,1.06,1.3,2.41,2.42,4.05,3.36,1.33.76,2.45,1.28,3.35,1.56.9.28,1.76.42,2.59.43l2.63-4.61-8-4.57,5.6-9.81,22.61,12.91-12.16,21.29c-3.71.61-7.66.56-11.86-.15-4.19-.71-8.43-2.28-12.69-4.72Z"/>
          <path class="cls-3" d="M483.93,103.61l-10.17-12.12,11.51-9.65,31.89,38.02-11.51,9.65-10.17-12.12-29.17,24.47-11.55-13.77,29.17-24.47Z"/>
          <path class="cls-3" d="M527.88,136.15l7.81,16.19-16.87,8.14,7.14,14.81,16.87-8.14,7.81,16.19-47.82,23.07-7.81-16.19,17.15-8.27-7.14-14.81-17.15,8.27-7.81-16.19,47.82-23.07Z"/>
          <path class="cls-3" d="M557.11,204.03l9.04,44.96-14.28,2.87-5.56-27.64-5.28,1.06,5.18,25.75-12.57,2.53-5.18-25.75-5.65,1.14,5.64,28.01-14.28,2.87-9.12-45.33,52.05-10.47Z"/>
          <path class="cls-3" d="M567.38,297.71l-6,44.61-15.03-2.02,3.61-26.8-6.69-.9-3.35,24.89-13.68-1.84,3.35-24.89-17.21-2.32,2.4-17.81,52.62,7.08Z"/>
          <path class="cls-3" d="M496.89,365.44c1.47-3.72,3.23-6.91,5.29-9.6,2.06-2.68,4.46-4.72,7.19-6.12,2.73-1.4,5.78-2.11,9.16-2.13,3.38-.02,7.11.78,11.2,2.4l27.23,10.74-6.71,17.01-27.02-10.66c-3.06-1.21-5.57-1.36-7.53-.45-1.96.9-3.38,2.48-4.27,4.72-.9,2.29-.99,4.4-.26,6.34.73,1.94,2.6,3.5,5.61,4.69l27.38,10.8-6.71,17.01-26.88-10.61c-4.23-1.67-7.6-3.69-10.09-6.05-2.49-2.36-4.25-5-5.28-7.9-1.03-2.91-1.37-6.07-1.03-9.49.34-3.42,1.25-6.98,2.71-10.7Z"/>
          <path class="cls-3" d="M506.74,430.85l9.23-12.85,12.2,8.76-28.96,40.29-12.2-8.76,9.23-12.85-30.92-22.22,10.49-14.6,30.92,22.22Z"/>
          <path class="cls-3" d="M431.35,456.76c3.06-2.57,6.13-4.55,9.22-5.93,3.09-1.38,6.17-2.04,9.23-1.97,3.06.06,6.09.89,9.07,2.48,2.98,1.59,5.89,4.07,8.72,7.43l18.86,22.39-13.98,11.78-18.71-22.22c-2.12-2.51-4.25-3.84-6.41-3.97-2.16-.14-4.15.57-6,2.12-1.88,1.58-2.96,3.4-3.24,5.45-.28,2.05.62,4.32,2.71,6.79l18.96,22.51-13.98,11.78-18.61-22.1c-2.93-3.48-4.93-6.85-6.01-10.11-1.07-3.26-1.37-6.42-.89-9.46.48-3.05,1.68-5.99,3.6-8.84,1.92-2.84,4.41-5.55,7.47-8.12Z"/>
          <path class="cls-3" d="M427.85,526.68l-23.66,11.42c-4.33,2.09-8.13,3.32-11.4,3.69-3.26.37-6.15.12-8.67-.74-2.18-.75-4.08-1.85-5.69-3.32-1.62-1.47-3.02-3.43-4.21-5.89l-.07-.14c-1.69-3.51-2.27-6.88-1.73-10.12.54-3.24,1.95-6.27,4.22-9.11l-19.12-10.82,18.47-8.91,15.72,9.25.14-.07,3.32-1.6-6.59-13.66,16.19-7.81,23.08,47.82ZM393.7,515.11c-1.94.93-3.26,2.08-3.97,3.43s-.72,2.76-.01,4.22l.07.14c.75,1.55,1.86,2.43,3.33,2.65,1.47.22,3.15-.13,5.04-1.04l7.06-3.41-4.52-9.36-6.99,3.37Z"/>
          <path class="cls-3" d="M363.84,554.53l-44.84,9.58-3.04-14.24,27.57-5.89-1.13-5.27-25.69,5.49-2.68-12.53,25.69-5.49-1.2-5.64-27.94,5.97-3.04-14.24,45.22-9.66,11.1,51.92Z"/>
          <path class="cls-3" d="M249.37,508.83c4.1.6,7.81,1.86,11.13,3.78,3.32,1.92,6.1,4.29,8.35,7.13,2.25,2.83,3.87,6.02,4.85,9.56.98,3.54,1.19,7.21.64,11.02l-.02.15c-.56,3.8-1.83,7.26-3.81,10.37-1.98,3.11-4.46,5.71-7.43,7.8-2.97,2.09-6.34,3.59-10.09,4.5-3.75.91-7.69,1.06-11.79.46-4.1-.6-7.81-1.86-11.13-3.78-3.32-1.92-6.1-4.29-8.35-7.13-2.25-2.83-3.87-6.02-4.85-9.56-.98-3.54-1.19-7.22-.64-11.02l.02-.15c.56-3.8,1.83-7.26,3.81-10.37,1.98-3.11,4.46-5.71,7.43-7.8,2.97-2.09,6.34-3.59,10.09-4.5,3.76-.91,7.69-1.06,11.79-.46ZM246.94,524.34c-1.67-.25-3.24-.14-4.7.31-1.46.45-2.75,1.14-3.88,2.08-1.12.93-2.04,2.06-2.75,3.39-.71,1.33-1.18,2.77-1.41,4.32l-.02.15c-.23,1.55-.18,3.08.14,4.58.32,1.5.89,2.88,1.69,4.12.8,1.24,1.84,2.29,3.11,3.14,1.27.85,2.77,1.4,4.49,1.65,1.67.25,3.24.14,4.7-.31,1.46-.45,2.76-1.14,3.88-2.08,1.12-.94,2.04-2.07,2.75-3.39.71-1.33,1.18-2.77,1.41-4.32l.02-.15c.23-1.55.18-3.08-.14-4.58-.32-1.5-.88-2.88-1.69-4.12-.8-1.24-1.84-2.29-3.11-3.14-1.27-.85-2.77-1.4-4.49-1.65Z"/>
          <path class="cls-3" d="M192.97,551.82l-41.53-17.36,5.85-14,24.95,10.43,2.6-6.23-23.17-9.69,5.32-12.74,23.17,9.69,6.7-16.03,16.58,6.93-20.48,48.98Z"/>
          <path class="cls-3" d="M109.57,510.65l-13.09-13.52,13.01-23.19-24.45,11.6-10.8-11.14,12.38-24.07-23.6,12.27-12.88-13.3,50.65-24.57,10.9,11.26-12.39,25.15,25.53-11.58,10.9,11.26-26.17,49.84Z"/>
          <path class="cls-3" d="M40.54,430.42l-20.59-40.97,13.01-6.54,12.66,25.19,4.81-2.42-11.8-23.47,11.45-5.76,11.8,23.47,5.15-2.59-12.83-25.53,13.01-6.54,20.76,41.32-47.44,23.84Z"/>
          <path class="cls-3" d="M12.97,370.32l-6.68-29.36c-.83-3.64-1.12-6.74-.87-9.29.25-2.55.96-4.77,2.14-6.67.72-1.16,1.68-2.19,2.87-3.1,1.2-.9,2.68-1.56,4.46-1.96l.15-.03c3.11-.71,5.8-.43,8.09.84,2.29,1.27,4.24,3.21,5.88,5.83.21-3.64,1.05-6.69,2.51-9.14s3.97-4.08,7.52-4.88l.15-.03c2.07-.47,4.08-.48,6.02-.03,1.94.45,3.75,1.38,5.42,2.79,1.67,1.41,3.15,3.29,4.44,5.66,1.29,2.36,2.31,5.19,3.06,8.49l6.62,29.1-51.77,11.78ZM27.69,340.98c-.84-3.69-2.44-5.27-4.81-4.73l-.15.03c-2.37.54-3.12,2.68-2.27,6.43l1.72,7.56,7.25-1.65-1.74-7.64ZM45.77,335.68c-.43-1.9-1.1-3.25-2.02-4.07-.91-.82-1.93-1.1-3.07-.84l-.15.03c-1.13.26-1.94.94-2.41,2.05-.47,1.11-.5,2.61-.06,4.5l2.01,8.84,7.69-1.75-1.99-8.76Z"/>
          <path class="cls-3" d="M54.9,281.4c-.06,5.58-.94,10.36-2.65,14.34-1.71,3.98-4.1,7.43-7.16,10.37l-10.73-10.79c1.89-1.98,3.34-4.01,4.35-6.1,1.01-2.09,1.52-4.26,1.55-6.51.02-2-.35-3.52-1.13-4.58-.77-1.06-1.79-1.59-3.06-1.61h-.15c-1.31-.02-2.36.55-3.13,1.69s-1.17,2.92-1.19,5.33l-.08,7.6-7.91,2.3-9.13-11.93-.21,19.97-13.8-.15.44-41.32,12.21.13,8.82,12.15c1.1-4.03,2.87-7.24,5.3-9.62,2.43-2.38,5.74-3.55,9.94-3.51h.15c2.88.03,5.42.65,7.6,1.85,2.19,1.2,4.03,2.82,5.52,4.86,1.5,2.04,2.62,4.39,3.38,7.06.76,2.67,1.12,5.49,1.09,8.46Z"/>
          <path class="cls-3" d="M53.02,210.4c-.61,1.9-1.55,3.58-2.81,5.03-1.26,1.45-2.71,2.6-4.33,3.45-1.63.85-3.38,1.38-5.25,1.58-1.87.21-3.75,0-5.62-.6l-.14-.05c-1.88-.6-3.52-1.53-4.92-2.79-1.4-1.26-2.52-2.7-3.35-4.34-.83-1.64-1.33-3.41-1.52-5.33-.18-1.91.03-3.82.64-5.72.61-1.9,1.55-3.58,2.81-5.03,1.26-1.45,2.71-2.6,4.33-3.45,1.63-.85,3.38-1.38,5.25-1.58,1.87-.21,3.75,0,5.62.6l.14.05c1.88.6,3.52,1.53,4.92,2.79,1.4,1.26,2.52,2.7,3.35,4.34.83,1.64,1.33,3.41,1.52,5.33.18,1.91-.03,3.82-.64,5.72Z"/>
        </g>
      </g>
      <g>
        <g>
          <g>
            <path class="cls-11" d="M261.33,418.5c2.52-.57,5.64-1.29,7.51-1.74,6.91-1.67,13.77-3.52,20.62-5.4,9.45-2.6,18.85-5.39,28.22-8.25,4.16-1.27,7.26-4.77,8.02-9.05,3.93-22.19,7.86-44.38,11.79-66.57.26-1.47-1.1-2.7-2.53-2.31-15.71,4.3-31.45,8.48-47.29,12.27-4.3,1.03-8.63,1.93-12.97,2.81-.39.08-.78.16-1.18.25-2.24.49-3.96,2.3-4.32,4.56-3.11,19.37-6.24,38.74-9.33,58.12-.65,4.05-1.29,8.11-1.92,12.16-.31,1.94,1.45,3.58,3.37,3.15Z"/>
            <path class="cls-11" d="M334.77,397.82c12.42-3.86,24.84-7.73,37.26-11.59,5.89-1.83,11.77-3.66,17.66-5.49,3.72-1.16,6.51-4.25,7.28-8.07,1.41-7,2.82-14.01,4.2-21.02,2.81-14.19,5.57-28.38,8.28-42.59.53-2.78-1.27-4.44-3.99-3.68-7.53,2.08-15.05,4.19-22.57,6.32-10.96,3.11-21.92,6.24-32.89,9.31-4.02,1.13-7.04,4.45-7.77,8.56-3.03,17.21-6.06,34.43-9.09,51.64-.77,4.38-1.54,8.76-2.31,13.15-.48,2.72,1.29,4.28,3.93,3.46Z"/>
            <path class="cls-11" d="M418.91,258.85c1.45-7.77,2.85-15.56,4.36-23.32.44-2.28.87-4.56,1.31-6.84.4-2.09-1.48-3.89-3.55-3.4-6.38,1.53-12.76,3.04-19.14,4.54-13.43,3.15-26.92,6.07-40.37,9.16h-.05c-2.68.63-4.63,2.92-4.84,5.66-.04.56-.09,1.13-.15,1.69-.46,4.49-1.32,8.93-2.06,13.38-1.48,8.91-3.05,17.8-4.61,26.7-1.49,8.5-2.99,17-4.48,25.51-.45,2.56,1.23,4.08,3.73,3.37,13.09-3.73,26.17-7.47,39.26-11.18,5.41-1.53,10.82-3.05,16.23-4.55,4.32-1.2,7.59-4.74,8.43-9.15,1.99-10.52,3.97-21.05,5.93-31.58Z"/>
            <path class="cls-11" d="M275.2,334.91c2.5-.62,5.46-1.35,7.28-1.81,7.09-1.8,14.19-3.53,21.27-5.36,10.33-2.67,20.62-5.47,30.89-8.35,2.76-.77,4.83-3.06,5.33-5.88,1.95-11.05,3.9-22.1,5.9-33.15,1.44-7.93,2.84-15.86,4.32-23.78.4-2.13,1.16-6.56,1.77-10.17.44-2.59-1.89-4.8-4.45-4.21-2.37.54-4.73,1.08-7.1,1.61-.02,0-.05.01-.07.02-2.9.91-5.81,1.79-8.74,2.63-9.4,2.7-19.03,4.77-28.68,6.35-3.91.64-7.79,1.33-11.6,2.41-1.83.52-3.62,1.17-5.32,2.05-.59.31-1.17.65-1.73,1.01-.84,1.22-1.3,2.75-1.62,4.13-.6,2.62-.85,5.34-1.23,8-1.53,10.79-3.4,21.54-5.27,32.27-.73,4.23-1.47,8.45-2.2,12.68-.84,5.35-1.69,10.7-2.54,16.05-.35,2.19,1.65,4.03,3.8,3.49Z"/>
            <path class="cls-11" d="M449.96,367.71c-4.98,1.51-12.91,3.89-17.52,5.14-7.76,2.11-15.41,4.69-23.09,7.08-1.1.34-2.21.68-3.31,1.03-3.58,1.11-6.27,4.09-7.02,7.77-1.06,5.21-2.12,10.43-3.19,15.64-2.63,12.81-5.31,25.62-8.03,38.41-.49,2.33,1.74,4.31,3.99,3.53,2.97-1.02,5.94-2.04,8.9-3.06,6.51-2.24,13.07-4.34,19.6-6.52,3.3-1.1,6.59-2.2,9.89-3.3.49-.16.99-.33,1.48-.49,0,0,.02,0,.03-.01.44-.18.11-.05.02,0,.3-.13.59-.26.88-.4.55-.26,1.09-.53,1.62-.82.62-.34,1.22-.71,1.81-1.11.2-.14.41-.29.6-.44.04-.03.07-.06.09-.08.13-.12.27-.23.4-.34.5-.44.98-.91,1.42-1.42.15-.17.3-.35.44-.53.05-.06.12-.16.15-.2.1-.14.2-.28.29-.42.34-.52.66-1.05.95-1.6.15-.27.29-.55.42-.83.07-.16.14-.32.22-.47.01-.02.03-.07.05-.11.47-1.13.85-2.3,1.18-3.47.74-2.62,1.24-5.3,1.78-7.97.63-3.13,1.27-6.25,1.9-9.38,1.26-6.25,2.56-12.49,3.87-18.74.6-2.87,1.27-5.74,2.01-8.58.46-1.75.87-3.51,1.32-5.26.5-1.9-1.29-3.61-3.17-3.04Z"/>
            <path class="cls-11" d="M322.76,410.68c.33-1.88-1.44-3.46-3.27-2.9-11.88,3.63-23.8,7.17-35.84,10.26-6.95,1.79-13.93,3.45-20.95,4.96-.81.17-1.63.35-2.45.53-2.22.48-3.93,2.26-4.28,4.51-3.15,20.02-6.34,40.04-9.92,59.98-.53,2.93,2.04,5.49,4.96,4.94,1.15-.22,2.17-.43,2.71-.59,7.95-2.35,15.91-4.71,23.83-7.17,5.07-1.58,10.13-3.19,15.18-4.84,3.79-1.32,7.58-2.63,11.37-3.94,4.72-1.63,8.16-5.7,9-10.61,2.5-14.69,5.1-29.37,7.7-44.04.65-3.69,1.31-7.39,1.96-11.08Z"/>
            <path class="cls-11" d="M482.5,213.27c-.25-.21-.57-.3-.88-.38-2.25-.58-3.86-.09-6.14.33-2.44.45-4.88.92-7.31,1.41-4.3.86-8.58,1.84-12.89,2.65-2.23.42-4.45.86-6.67,1.31-2.09.53-4.19,1.05-6.29,1.56-3.03.74-6.07,1.47-9.1,2.2-2.05.49-3.6,2.17-3.94,4.25-.03.16-.05.31-.08.47-.64,3.99-1.28,7.98-1.93,11.97-1.28,7.89-2.72,15.76-4.12,23.63-1.68,9.46-3.4,18.92-5.15,28.37-.44,2.36,1.73,4.38,4.06,3.75,2.93-.79,5.85-1.56,8.78-2.33,12.61-3.29,25.26-6.44,37.99-9.24,1.96-.43,3.48-1.99,3.84-3.97,1.61-8.84,3.17-17.7,4.68-26.56,1.36-7.98,2.65-15.98,3.87-23.99.71-4.64,2.2-9.2,1.83-13.89-.04-.57-.13-1.19-.57-1.55Z"/>
            <path class="cls-11" d="M466.59,289.79c-13.58,3.11-27.11,6.45-40.58,10.01-.99.26-1.97.52-2.96.79-4.38,1.17-7.7,4.74-8.54,9.19l-.05.28c-2.98,15.7-6.01,31.39-9.11,47.07-.93,4.73-1.88,9.46-2.83,14.19-.52,2.6,1.93,4.81,4.46,4.02,2.45-.76,4.9-1.52,7.35-2.29,7.33-2.28,14.65-4.62,21.93-7.05,3.73-1.24,8.76-2.84,12.82-4.12,4.32-1.36,7.6-4.9,8.62-9.32.35-1.53.7-3.05,1.05-4.58,1.82-7.99,3.59-15.99,5.3-24,1.65-8.11,3.26-16.22,4.83-24.34.41-2.16.82-4.31,1.23-6.47.45-2.41-1.14-3.94-3.53-3.4Z"/>
            <path class="cls-11" d="M393.33,390.57c.55-2.72-2.01-5.04-4.67-4.22-7.18,2.23-14.35,4.45-21.53,6.68-10.41,3.23-20.81,6.47-31.21,9.69-4.25,1.32-7.41,4.9-8.18,9.28-3.19,18.2-6.4,36.39-9.73,54.56-.44,2.42,1.88,4.43,4.21,3.63.02,0,.04-.01.05-.02,7.1-2.43,14.2-4.86,21.3-7.3.59-.22,1.19-.45,1.78-.67.49-.19,1-.45,1.51-.57.17-.04.34-.06.51-.06,4.75-1.63,9.5-3.26,14.25-4.89.22-.08.45-.15.67-.23.67-.24,1.33-.48,2-.72,2.98-1.07,5.99-2.07,9.01-3.06l1.96-.67c3.48-1.2,6.08-4.13,6.85-7.73v-.06c3.29-15.4,6.53-30.81,9.71-46.24.51-2.46,1.01-4.92,1.51-7.39Z"/>
          </g>
          <path class="cls-12" d="M252.24,155.01c-1.25.24-1.57,1.87-.52,2.58.24.17.9.55,1.14.72l6.71,4.69c3.83,2.68,7.66,5.36,11.5,8.03,7.59,5.31,15.18,10.62,22.79,15.91l.04.03c2.28,1.58,5.11,2.16,7.83,1.58,8.68-1.84,28.51-6.05,39.53-8.35,5.44-1.14,10.88-2.28,16.31-3.42,2.66-.56,3.38-4.01,1.17-5.6-.02-.01-.04-.03-.06-.04-1.79-1.29-17.99-12.69-21.62-15.15-3.63-2.46-7.29-4.85-11.02-7.16-1.84-1.14-3.71-2.25-5.54-3.42l-.23-.15c-2.36-1.5-5.2-2.06-7.96-1.56-6.29,1.14-12.58,2.29-18.87,3.45-13.75,2.55-27.48,5.19-41.21,7.87Z"/>
          <path class="cls-12" d="M325.36,142.76h.02c4.82,2.84,9.53,5.82,14.19,8.91,2.35,1.55,4.68,3.13,7,4.72,1.16.8,2.32,1.6,3.47,2.41.59.42,10.15,7.24,11.59,8.27.67.48,1.53,1.09,2.47,1.76,4.52,3.22,10.19,4.4,15.62,3.25,1.42-.3,2.84-.6,4.27-.9,7.15-1.52,14.31-3.03,21.46-4.53,3.77-.79,7.55-1.66,11.33-2.46,1.72-.37,2.18-2.63.72-3.62-.02-.01-.03-.02-.05-.03-.79-.53-2.15-1.44-2.93-1.99-2.58-1.82-5.16-3.64-7.75-5.44-1.66-1.11-3.31-2.22-4.97-3.32-5.81-3.88-11.59-7.8-17.43-11.62-1.36-.88-2.72-1.75-4.14-2.53-.71-.39-1.42-.75-2.15-1.09-.17-.08-.35-.16-.52-.23-.06-.02-.1-.04-.13-.06-.45-.19-.92-.36-1.38-.52-.46-.16-.93-.3-1.41-.42l-.8-.21c-.92-.24-1.88-.34-2.83-.3-4.14.18-5.89,1.01-9.1,1.37-1.04.17-13.17,2.65-14.96,3.01-7.09,1.41-14.2,2.76-21.3,4.07-.75.14-.92,1.13-.27,1.52Z"/>
          <path class="cls-12" d="M380.82,176.96c-1.57.33-2,2.37-.69,3.3,7.08,5.04,14.15,10.09,21.22,15.14,5.21,3.72,10.42,7.45,15.62,11.19,2.42,1.74,4.88,3.43,7.25,5.25.55.42,1.08.85,1.6,1.29,1.47,1.26,3.45,1.77,5.34,1.36.85-.18,1.71-.37,2.56-.55,6.89-2.14,13.82-4.14,20.8-5.98,4.23-1.11,8.57-1.9,12.86-2.75,2.15-.42,4.3-.83,6.46-1.23h.03c1.41-.26,1.82-2.07.67-2.92-5.58-4.1-17.5-12.85-24.31-17.71-4.58-3.27-9.19-6.53-13.8-9.75-1.2-.84-2.4-1.68-3.6-2.51-.55-.39-1.12-.76-1.67-1.16-.82-.64-1-.78-.54-.41-.09-.07-.18-.14-.27-.2-.28-.2-.54-.41-.82-.61,0,0-.01-.01-.02-.02-1.33-.99-3.02-1.34-4.64-.98-.63.14-1.26.28-1.89.41-14.05,2.93-28.09,5.87-42.13,8.83h-.04Z"/>
          <path class="cls-12" d="M360.53,230.42c6.55-1.49,13.1-2.98,19.65-4.46,9.32-2.12,26.25-5.94,35.48-8.02,2.5-.56,3.17-3.81,1.1-5.32-.64-.46-1.21-.88-1.61-1.16-3.76-2.7-7.51-5.39-11.27-8.08-7.55-5.41-15.11-10.8-22.68-16.2-1.82-1.3-3.63-2.59-5.45-3.88-3.63-2.58-8.17-3.52-12.53-2.58-8.15,1.76-16.29,3.54-24.43,5.34-10.15,2.25-20.3,4.51-30.45,6.77-1.75.39-2.2,2.67-.73,3.69,2.99,2.09,5.97,4.18,8.94,6.29,7.48,5.3,14.92,10.64,22.35,16.01,3.75,2.71,7.48,5.43,11.21,8.16.62.45,1.48,1.09,2.35,1.74,2.31,1.72,5.26,2.34,8.07,1.7Z"/>
          <path class="cls-12" d="M287.91,188.62s-.02-.01-.03-.02c-7.5-5.21-15.03-10.38-22.55-15.57-3.74-2.58-7.48-5.17-11.22-7.75-1.9-1.31-3.76-2.64-5.59-4.03-.92-.7-1.83-1.39-2.75-2.09-.48-.36-.95-.72-1.43-1.08h-.02c-1-.77-2.28-1.06-3.51-.82-.28.05-.55.11-.83.16-17.88,3.52-35.73,7.12-53.55,10.93-1.78.38-4.59,1.1-7.2,1.8-2.46.66-2.98,3.91-.86,5.32l.05.04c1.88,1.24,3.75,2.5,5.62,3.76,3.74,2.52,7.41,5.13,11.07,7.77,7.31,5.29,14.55,10.67,21.79,16.05.32.24.64.48.96.72,3.24,2.41,7.49,2.96,11.24,1.47,1.92-.76,3.89-1.47,5.19-1.76,7.14-1.59,14.28-3.16,21.42-4.75,10.54-2.34,21.06-4.75,31.6-7.09,1.44-.32,1.82-2.2.6-3.05Z"/>
          <path class="cls-12" d="M289.08,197.06c-9.57,2.07-25.11,5.44-34.35,7.49-6.93,1.54-13.83,3.31-20.8,4.64h-.07c-2.66.52-3.45,3.95-1.27,5.57,2,1.49,4,2.98,6.01,4.46,7.25,5.37,14.53,10.68,21.89,15.89,6.23,4.42,12.53,8.75,18.9,12.97.93.62,2.1.74,3.14.33h.03c.54-.22,1.09-.4,1.66-.53,2.61-.62,5.23-1.24,7.84-1.86,3.25-.77,6.5-1.53,9.76-2.27,13.03-2.96,26.07-5.92,39.1-8.88,1.63-.37,3.25-.74,4.88-1.11,2.36-.54,2.7-2.15.75-3.59-1.06-.78-2.12-1.56-3.18-2.33-3.66-2.68-7.33-5.35-11.01-8.01-7.32-5.29-14.7-10.51-22.1-15.69-1.91-1.34-3.82-2.67-5.73-4-4.49-3.13-10.08-4.25-15.43-3.1Z"/>
          <path class="cls-12" d="M210.09,115.53c.42.34,1.09.89,1.51,1.23,10.89,7.66,21.73,15.38,32.55,23.14,2.2,1.57,4.91,2.25,7.59,1.88h.06c.96-.14,1.91-.38,2.84-.69,1.19-.4,2.29-1.04,3.28-1.83,8.7-6.92,17.48-13.74,26.23-20.6,4.62-3.62,9.25-7.22,13.89-10.81,2.05-1.58,4.12-3.14,6.2-4.69.62-.65,1.28-1.28,1.9-1.92,0,0,.01-.01.02-.02,1.12-1.15,1.14-2.99,0-4.12-1.88-1.88-3.89-3.63-5.97-5.29-3.94-3.12-8.44-6.06-12.71-8.94-2.12-1.43-4.24-2.88-6.32-4.38-2.11-1.52-4.48-3.37-6.24-4.72-.5-.32-.99-.65-1.49-.97-1.53-.99-3.08-2.18-4.83-2.75-3.4-1.09-6.85,1.14-9.67,2.8-3.2,1.89-6.37,3.83-9.53,5.79-6.36,3.94-12.6,8.08-18.75,12.33-7.77,5.38-15.37,10.98-22.88,16.7-.51.39-.88.95-1.04,1.57h0c-.41,1.6.32,2.98,1.34,4.17.64.73,1.32,1.43,2.02,2.11Z"/>
          <path class="cls-12" d="M138.35,166.83c.34.39.87,1.02,1.22,1.41,6.91,5.47,13.74,11.04,20.66,16.5.91-5.38,2.39-10.75,6.29-14.59,2.84-2.8,6.62-4.34,10.43-5.29,4.26-1.07,8.6-1.89,12.9-2.81,17.78-3.78,35.57-7.53,53.4-11.1.31-.06.59-.21.82-.42h0c.17-.31.33-.59.5-.9.08-.36.12-.65.13-.91,0-.19,0-.37,0-.55-.25-.65-.58-1.27-.97-1.85-.49-.72-1.11-1.35-1.82-1.86-1.24-.88-2.47-1.77-3.71-2.65-6.62-4.73-13.23-9.47-19.8-14.27-.35-.22-.93-.59-1.28-.81h0c-.62-.34-1.11-.79-1.63-1.26-.18-.15-.48-.39-.67-.53-2.18-1.59-4.36-3.18-6.54-4.77-.71-.52-1.42-1.02-2.13-1.54-1.6-.97-3.27-1.89-5.12-2.27-.65-.14-1.32-.18-1.98-.16-1.59.06-3.12.67-4.37,1.66,0,0,0,0-.01.01-11.93,9.4-23.72,18.99-35.77,28.23-5.95,4.56-11.95,9.06-18.02,13.45-.16.12-.33.24-.5.36-.43.34-.86.69-1.29,1.03-.86.69-1.48,1.68-1.59,2.79-.01.12-.02.25-.02.37,0,.99.4,1.89.88,2.73h0Z"/>
          <path class="cls-12" d="M78.08,224.17c7.03,5.39,14.04,10.82,21.04,16.25,1.61,1.25,3.19,2.52,4.84,3.71,1.48,1.07,3.06,2.11,4.8,2.72,1.46.52,3.06.78,4.6.53.8-.13,1.49-.48,2.25-.7.45-.13.9-.24,1.36-.34.65-.58,1.31-1.15,1.98-1.71,11.39-9.5,23.53-18.04,36.21-25.73.02-.01.04-.02.06-.03,1.34-9.16,2.69-18.32,4.03-27.47.07-.46.13-.93.2-1.4-.23-.11-.45-.24-.65-.4-2.15-1.74-4.29-3.48-6.42-5.23-3.72-3.05-7.41-6.13-11.09-9.23-1.6-1.35-3.16-2.77-4.72-4.17-.93-.54-1.83-1.07-2.76-1.61-.27-.09-.54-.17-.81-.24-2-.52-4.12-.01-5.73,1.28-4.4,3.52-8.82,7.01-13.29,10.44-9.01,6.91-17.99,13.61-26.81,20.77-4.06,3.3-8.42,6.68-11.71,10.79-.49.61-.96,1.28-1.42,1.96-.02.04-.04.08-.06.12-.03.05-.07.18-.11.29,0,0,0,0,0,0-.74,3.02.34,6.2,2.72,8.19.5.42,1.01.82,1.5,1.19Z"/>
          <path class="cls-8" d="M125.29,307.3c1.36.82,2.72,1.62,4.09,2.42,0,0,0,0,0,0-4.24-11.13-8.3-22.32-12.14-33.59-1.1-3.22-2.24-6.43-3.21-9.68-.16-.53-.31-1.05-.46-1.58-.61-1.3-1.58-3.38-2.18-4.68-.18-.28-.33-.57-.49-.81-.04-.06-.07-.11-.11-.17-.34-.55-.83-.97-1.4-1.28-.26-.14-.5-.3-.71-.48-2.28-1.91-19.67-16.03-28.86-23.5-1.72-1.4-4.21.3-3.53,2.42,1.11,3.45,2.38,7.21,3.1,9.05.71,1.79,1.44,3.56,2.18,5.34,0,.02.01.04.02.05.02.04.04.09.07.15.09.22.19.44.28.66.19.44.38.88.56,1.32.36.83.71,1.66,1.07,2.49,1.69,3.93,3.27,7.91,4.91,11.86,1.53,3.68,3.06,7.36,4.6,11.04.39.92.77,1.84,1.16,2.76.19.46.39.92.58,1.38.1.23.19.46.29.69.01.03.03.07.05.12.38.89.81,1.76,1.13,2.68,1.6,4.58,4.24,5.5,5.71,6.45,5.13,3.34,10.26,6.67,15.4,9.99,2.61,1.68,5.24,3.32,7.9,4.93Z"/>
          <path class="cls-8" d="M133.51,351.57c.84.51,1.68,1.03,2.52,1.55.17-1.05.35-2.11.52-3.16.68-4.17,1.35-8.34,2-12.51.18-1.15.35-2.3.53-3.45-.22-.39-.43-.8-.62-1.25-.35-.84-.69-1.69-1.04-2.53-.72-1.77-1.43-3.54-2.14-5.31-1.24-3.1-2.47-6.21-3.68-9.33-1.01-.03-1.89-.26-2.82-.64-.31-.13-.62-.28-.92-.44-2.08-1.11-4.14-2.24-6.19-3.4-2.7-1.52-5.38-3.09-8.03-4.7-2.66-1.61-5.22-3.34-7.77-5.12-.06-.04-.12-.08-.17-.12-1.21-.85-2.77.42-2.18,1.78.67,1.55,1.35,3.1,2.02,4.64,5.13,11.75,10.38,23.46,15.64,35.15v.03c.79,1.74,2.15,3.15,3.84,4.03,1.02.53,2.03,1.06,3.04,1.59,1.86.98,3.64,2.09,5.44,3.19Z"/>
          <path class="cls-8" d="M133.93,356.97c-.83-.54-1.66-1.08-2.49-1.61-1.07-.69-3.23-2.08-4.75-3.06-.49-.31-1.08.2-.84.73,1.1,2.41,2.2,4.82,3.3,7.23,1.35,2.95,2.83,5.87,4.06,8.87.48-2.29,1.76-9.81,2.03-11.28-.44-.28-.87-.59-1.3-.87Z"/>
          <g>
            <path class="cls-8" d="M199.74,381.51l.05.04c3.52,2.99,7.05,5.98,10.57,8.96,7,5.91,14.02,11.79,21.15,17.55,1.78,1.44,3.57,2.87,5.37,4.29.88.7,1.75,1.41,2.65,2.08.15.11.34.26.4.3.21.16.41.31.62.46.42.31.84.61,1.27.91.88.61,1.79,1.19,2.73,1.72.48.27.96.53,1.46.77.23.11.46.21.69.32.02,0,.03.01.04.02.06.02.12.04.17.06h.02c.97.38,2.03-.23,2.2-1.25,3.74-22.66,7.51-45.31,11.24-67.97.22-1.31.43-2.62.65-3.93.4-2.42-.64-4.86-2.68-6.23l-.03-.02c-1.92-1.3-3.72-2.78-5.57-4.18-3.92-2.97-7.84-5.95-11.75-8.93-7.97-6.06-15.99-12.07-23.81-18.33-2.51-2.01-5.02-4.02-7.52-6.03-1.13-.91-2.83-.26-3.06,1.18-.45,2.79-.9,5.58-1.36,8.37-2.54,15.26-4.99,30.54-7.44,45.81-.71,4.4-1.4,8.8-2.09,13.19-.64,4.07.89,8.18,4.04,10.85Z"/>
            <path class="cls-8" d="M153.26,264.14c-.27,3.14-.61,6.79-.87,8.97-1.8,15.23-3.8,30.44-6,45.62-.72,4.97-1.47,9.93-2.23,14.89-.32,2.07.39,4.17,1.91,5.62l.02.02c.55.53,1.13,1.04,1.7,1.55,2.95,1.97,5.86,3.98,8.72,6.1,3.8,2.82,7.57,5.7,11.3,8.62,4.66,3.64,12.53,10.05,17.64,14.23,2.18,1.79,5.48.52,5.91-2.26,3.27-20.91,6.7-41.79,10.32-62.64.27-1.54.53-3.09.79-4.63.35-2.08-.47-4.19-2.14-5.47l-.03-.02c-1.95-1.5-3.9-3.01-5.84-4.51-7.87-6.07-15.73-12.16-23.59-18.24-3.89-3.01-7.81-5.98-11.59-9.12-.33-.27-.66-.55-.99-.82-1.91-1.58-4.8-.37-5.02,2.09Z"/>
            <path class="cls-8" d="M275.11,262.74c.18-.94.15-1.92-.18-2.82,0,0,0-.01,0-.02-.69-1.89-1.81-3.64-3.06-5.2-.45-.56-.93-1.1-1.42-1.62-5.78-4.02-11.49-8.13-17.16-12.3-7.31-5.38-14.54-10.85-21.76-16.35-1.91-1.45-3.81-2.91-5.72-4.36-1.72-1.31-4.22-.29-4.52,1.85-.07.48-.16,1.35-.24,1.83-.96,5.32-1.9,10.64-2.84,15.96-1.52,8.62-3.16,17.21-4.73,25.81-1.4,7.68-2.83,15.35-4.31,23.01-.13.69-.26,1.37-.39,2.06-.39,2.09.43,4.22,2.13,5.49,3.94,2.94,7.89,5.87,11.86,8.77,3.9,2.86,7.69,5.87,11.53,8.8,3.88,2.96,7.74,5.95,11.61,8.92,3.84,2.95,7.67,5.9,11.51,8.84.44.33.87.67,1.31,1.02,2.21,1.73,4.4.88,4.87-1.89,1.51-8.96,3.02-17.91,4.5-26.88,1.25-7.61,2.43-15.23,3.8-22.81.49-2.71,2.44-14,3.24-18.12Z"/>
            <path class="cls-8" d="M167.97,179.4c-2.77.76-3.11,5.34-3.46,7.59-.69,4.31-1.29,8.63-1.94,12.94-1.3,8.73-2.35,17.49-3.6,26.23-.66,4.62-1.41,9.22-2.01,13.85-.3,2.3-.55,4.61-.75,6.92-.15,1.78-.99,4.2-.4,5.95.19.57.58,1.04.97,1.5,2.45,2.93,5.59,4.41,8.57,6.71,3.86,2.99,7.72,5.97,11.58,8.96.47.37.95.73,1.42,1.1.06.04.3.23.36.28.24.18.47.36.7.54.97.75,1.95,1.5,2.92,2.26,1.91,1.48,3.83,2.95,5.74,4.43,3.83,2.95,7.66,5.91,11.49,8.86,1.81,1.39,3.29,3.16,4.4.14,1.47-3.99,1.96-7.89,2.66-11.99.96-5.68,1.93-11.35,2.94-17.02,1.36-7.69,2.74-15.38,4.23-23.05.74-3.83,1.49-7.66,2.25-11.49.69-3.51,1.72-7.16.17-10.63-1.07-2.4-4.19-3.94-6.21-5.48-7.22-5.49-14.49-10.91-21.82-16.24-3.67-2.66-7.25-5.42-10.74-8.24-.08-.06-.15-.12-.23-.18-2.16-1.76-6.25-4.75-9.23-3.92Z"/>
            <path class="cls-8" d="M243.69,423.79c-2.41-1.12-4.66-2.68-6.72-4.23-3.77-2.86-7.44-5.86-11.11-8.84-7.16-5.83-14.23-11.79-21.27-17.77-1.59-1.35-3.93-3.35-6.05-5.15-2.13-1.81-5.42-.59-5.85,2.18-.71,4.6-1.41,9.2-2.1,13.8-.58,3.86-1.16,7.72-1.73,11.59-.3,2.01-.59,4.02-.89,6.03-.27,1.81-1.69,10.51-1.81,11.44-.24,1.86-.47,3.71-.71,5.57-.14,1.1-.28,2.19-.44,3.28-.58,4.18.93,8.38,4.07,11.21,8.98,8.11,17.95,16.22,26.93,24.33,4.83,4.37,9.58,8.87,14.55,13.08.55.46,1.11.92,1.5,1.21.57.43,1.16.84,1.76,1.22l.03.02c1.35.87,3.15.05,3.38-1.55.38-2.66.82-5.32,1.29-7.98,2.07-13.77,4.35-27.5,6.6-41.24.65-3.95,1.3-7.9,1.95-11.84.43-2.64-.96-5.22-3.39-6.35Z"/>
            <path class="cls-8" d="M188.55,385.71c.55-3.63-.81-7.29-3.59-9.69-.48-.41-.96-.83-1.44-1.23-7.04-5.96-14.14-11.85-21.38-17.58-.9-.71-1.79-1.42-2.69-2.12-.47-.36-.93-.73-1.4-1.09-.22-.17-.44-.34-.65-.51-.02-.01-.02-.02-.04-.03-.01-.01-.02-.02-.04-.03-.09-.07-.19-.14-.28-.22-1.84-1.42-3.7-2.83-5.56-4.22-1.97-1.47-3.65-2.83-5.45-4.2l-.03-.02c-1.75-1.34-3.47-.65-3.82,1.53-.34,2.12-.69,4.24-1.04,6.35-.31,1.87-.62,3.75-.94,5.62-.17,1-2.6,15.88-3.11,19.33-.23,1.59-.46,3.18-.67,4.77-.01.1-.02.16-.03.2,0,.03-.01.09-.03.2-.02.19-.05.37-.07.56-.06.42-.11.84-.16,1.26-.1.8-.2,1.59-.3,2.39-.4,3.03-.8,6.08-.74,9.14.02.77.07,1.54.15,2.31,0,.04,0,.06,0,.08.03.2.06.39.1.59.07.38.15.75.24,1.12.18.74.41,1.47.67,2.19.05.15.11.29.17.44,0,0,0,.01,0,.02.13.29.26.57.41.85.34.66.72,1.3,1.12,1.92.17.26.35.52.53.77.11.16.23.32.35.47,0,.01.03.04.06.07.86,1.08,1.83,2.08,2.82,3.04,2.2,2.14,4.52,4.16,6.8,6.22,2.52,2.28,5.05,4.56,7.57,6.84,6.59,5.96,13.19,11.91,19.78,17.87,1.76,1.59,4.59.58,4.94-1.76.14-.92.27-1.84.42-2.76.34-2.13,1.61-11.86,1.78-13.01,1.24-8.66,2.51-17.32,3.8-25.98.58-3.9,1.17-7.8,1.76-11.7Z"/>
          </g>
          <path class="cls-10" d="M484.47,199.4c-8.92-6.71-17.9-13.33-26.95-19.86-5.12-3.69-10.26-7.36-15.41-10.99-2.57-1.81-5.11-3.71-7.77-5.41-1.33-.85-2.65-1.7-3.97-2.55-.66-.42-6.53-4.77-8.25-5.94-1.68-1.14-3.35-2.29-5.05-3.39-3.35-2.17-6.71-4.33-10.08-6.48-6.76-4.31-13.45-8.72-20.2-13.04-3.22-2.06-6.58-4.01-10.25-5.16-4.12-1.29-8.34-1.12-12.56-.49-4.08.61-8.13,1.51-12.17,2.33-4.05.82-8.09,1.64-12.14,2.46-2.25.46-4.51.89-6.76,1.34-2.17-5-4.34-10-6.5-14.99-1.5-3.47-3.04-6.93-4.89-10.22-.38-.89-.79-1.78-1.23-2.64-.51-1-1.07-1.97-1.66-2.92-.67-1.07-1.12-2.26-1.79-3.32-1.36-2.15-3.27-4.1-5.05-5.9-7.7-7.79-17.34-13.24-26.22-19.52-2.14-1.51-4.06-3.01-6.06-4.67-2.07-1.72-4.21-3.49-6.62-4.71-5.7-2.88-11.71-2.24-17.44.19-5.18,2.2-47.04,31.38-56.1,38.59-9.54,7.59-19.08,15.18-28.62,22.77-19.08,15.18-38.16,30.35-57.24,45.53-8.81,7.01-17.41,14.32-26.03,21.57-3.58,2.61-7.02,5.42-10.36,8.28-2.94,2.52-5.8,5.02-7.97,8.26-2.3,3.43-3.34,7.46-3.35,11.56-.01,4.12.86,8.24,1.72,12.25.83,3.85,1.91,7.65,3.14,11.4,2.49,7.61,5.5,15.05,8.55,22.45,1.76,4.26,3.53,8.52,5.31,12.77.89,2.13,1.78,4.25,2.68,6.37.53,1.25,1.05,2.49,1.58,3.74.34.8,4.14,9.63,4.86,11.33,1.24,2.92,2.49,5.84,3.75,8.76,2.53,5.89,5.09,11.78,7.66,17.66,5.15,11.75,10.4,23.46,15.76,35.11,1.48,3.22,2.97,6.45,4.47,9.67.76,1.63,1.66,3.19,2.56,4.75.58,1.01,3.27,5.01,3.17,5.7-.48,3.39-.98,6.78-1.23,10.19-.24,3.22-.16,6.53.67,9.67.81,3.05,2.5,5.73,4.51,8.13,1.85,2.2,3.93,4.16,6.06,6.08,2.54,2.29,5.09,4.59,7.64,6.88,10.22,9.2,20.44,18.41,30.66,27.61,10.26,9.24,20.51,18.47,30.77,27.71,5.01,4.51,9.98,9.08,15.04,13.53,2.02,1.78,4.18,3.48,6.52,4.85.3.27.65.49,1.02.69.83.47,1.71.85,2.6,1.17,3.77,1.36,7.21,2.15,11.26,1.97,5.43-.24,11.04-.82,16.32-2.1,5.33-1.29,10.46-3.25,15.65-4.99,13.27-4.45,26.53-8.93,39.76-13.49,13.23-4.56,26.47-9.11,39.71-13.66,13.22-4.54,26.44-9.08,39.66-13.62,13.16-4.52,26.25-9.24,39.37-13.88.74-.26,1.5-.5,2.23-.79,1.03-.4,1.93-.94,2.87-1.51.4-.24.75-.59,1.02-1,3.08-2.36,5.05-6.27,6.33-10.04,1.05-3.09,1.7-6.3,2.44-9.47.92-3.95,1.86-7.89,2.75-11.84,3.57-15.82,7.12-31.64,10.54-47.49,3.44-15.92,6.78-31.87,9.94-47.85,3.14-15.9,6.17-31.83,8.77-47.83,1.3-8,2.54-16.02,3.7-24.04.61-4.19,1.22-8.37,1.67-12.58.42-3.97,2.46-17.43,1.34-19.27-1.46-2.42-3.87-4.03-6.07-5.69ZM422.99,168.11c.63-.13,1.26-.27,1.89-.41,1.62-.36,3.31-.01,4.64.98,0,0,.01.01.02.02.27.2.54.41.82.61.09.07.18.14.27.2-.46-.37-.28-.23.54.41.55.4,1.11.77,1.67,1.16,1.2.84,2.4,1.67,3.6,2.51,4.62,3.23,9.22,6.48,13.8,9.75,6.81,4.86,18.72,13.61,24.31,17.71,1.15.85.73,2.66-.67,2.92h-.03c-2.16.4-4.31.81-6.46,1.24-4.29.85-8.63,1.63-12.86,2.75-6.98,1.84-13.91,3.84-20.8,5.98-.85.18-1.71.37-2.56.55-1.89.41-3.87-.1-5.34-1.36-.52-.45-1.06-.88-1.6-1.29-2.37-1.81-4.83-3.51-7.25-5.25-5.2-3.73-10.41-7.46-15.62-11.19-7.07-5.05-14.15-10.1-21.22-15.14-1.31-.93-.88-2.97.69-3.3h.04c14.04-2.97,28.08-5.92,42.13-8.84ZM271.4,331.41c.85-5.35,1.7-10.7,2.54-16.05.73-4.23,1.47-8.45,2.2-12.68,1.87-10.73,3.74-21.49,5.27-32.27.38-2.66.63-5.38,1.23-8,.32-1.38.78-2.92,1.62-4.13.56-.36,1.14-.71,1.73-1.01,1.69-.88,3.49-1.53,5.32-2.05,3.82-1.08,7.69-1.77,11.6-2.41,9.65-1.58,19.27-3.65,28.68-6.35,2.92-.84,5.84-1.72,8.74-2.63.02,0,.05-.01.07-.02,2.37-.53,4.73-1.07,7.1-1.61,2.56-.58,4.89,1.62,4.45,4.21-.61,3.6-1.38,8.04-1.77,10.17-1.48,7.92-2.88,15.85-4.32,23.78-2,11.04-3.95,22.09-5.9,33.15-.5,2.82-2.57,5.11-5.33,5.88-10.27,2.87-20.56,5.67-30.89,8.35-7.08,1.83-14.18,3.57-21.27,5.36-1.82.46-4.77,1.19-7.28,1.81-2.15.53-4.15-1.3-3.8-3.49ZM268.07,303.67c-1.48,8.96-2.99,17.92-4.5,26.88-.47,2.77-2.66,3.62-4.87,1.89-.43-.34-.87-.68-1.31-1.02-3.84-2.95-7.67-5.89-11.51-8.84-3.87-2.97-7.73-5.96-11.61-8.92-3.84-2.93-7.63-5.94-11.53-8.8-3.97-2.91-7.92-5.83-11.86-8.77-1.7-1.27-2.52-3.4-2.13-5.49.13-.69.26-1.37.39-2.06,1.48-7.66,2.91-15.33,4.31-23.01,1.57-8.61,3.21-17.2,4.73-25.81.94-5.32,1.89-10.64,2.84-15.96.09-.48.18-1.35.24-1.83.3-2.15,2.8-3.17,4.52-1.85,1.9,1.46,3.81,2.91,5.72,4.36,7.22,5.5,14.45,10.97,21.76,16.35,5.67,4.17,11.38,8.28,17.16,12.3.49.52.97,1.06,1.42,1.62,1.25,1.56,2.38,3.31,3.06,5.2,0,0,0,.01,0,.02.33.9.36,1.88.18,2.82-.8,4.12-2.75,15.41-3.24,18.12-1.37,7.59-2.54,15.21-3.8,22.81ZM350.11,226.98c-3.73-2.73-7.47-5.45-11.21-8.16-7.42-5.37-14.87-10.71-22.35-16.01-2.97-2.11-5.95-4.2-8.94-6.29-1.47-1.03-1.02-3.3.73-3.69,10.15-2.26,20.3-4.52,30.45-6.77,8.14-1.8,16.28-3.59,24.43-5.34,4.35-.94,8.9,0,12.53,2.58,1.82,1.29,3.64,2.59,5.45,3.88,7.56,5.39,15.12,10.79,22.68,16.2,3.76,2.69,7.52,5.38,11.27,8.08.4.29.97.7,1.61,1.16,2.07,1.51,1.4,4.75-1.1,5.32-9.23,2.08-26.16,5.9-35.48,8.02-6.55,1.49-13.1,2.98-19.65,4.46-2.81.64-5.76.02-8.07-1.7-.87-.65-1.73-1.28-2.35-1.74ZM310.24,204.16c7.4,5.18,14.78,10.39,22.1,15.69,3.68,2.66,7.35,5.33,11.01,8.01,1.06.78,2.12,1.55,3.18,2.33,1.95,1.43,1.61,3.05-.75,3.59-1.63.37-3.25.74-4.88,1.11-13.03,2.96-26.07,5.92-39.1,8.88-3.26.74-6.51,1.5-9.76,2.27-2.61.62-5.23,1.24-7.84,1.86-.56.13-1.12.31-1.66.52h-.03c-1.04.42-2.21.3-3.14-.32-6.37-4.22-12.66-8.55-18.9-12.97-7.36-5.21-14.64-10.53-21.89-15.89-2-1.48-4.01-2.97-6.01-4.46-2.17-1.62-1.39-5.05,1.27-5.56h.07c6.97-1.35,13.87-3.12,20.8-4.66,9.24-2.05,24.77-5.42,34.35-7.49,5.35-1.16,10.94-.03,15.43,3.1,1.91,1.33,3.82,2.67,5.73,4ZM287.31,191.67c-10.54,2.33-21.07,4.75-31.6,7.09-7.14,1.59-14.28,3.16-21.42,4.75-1.3.29-3.27.99-5.19,1.76-3.75,1.49-8,.94-11.24-1.47-.32-.24-.64-.48-.96-.72-7.24-5.38-14.48-10.76-21.79-16.05-3.65-2.64-7.33-5.24-11.07-7.77-1.87-1.26-3.74-2.51-5.62-3.76l-.05-.04c-2.12-1.41-1.6-4.66.86-5.32,2.6-.7,5.42-1.42,7.2-1.8,17.82-3.81,35.67-7.41,53.55-10.93.28-.05.55-.11.83-.16,1.23-.24,2.51.05,3.51.81h.02c.48.37.95.73,1.43,1.1.92.7,1.83,1.39,2.75,2.09,1.83,1.39,3.7,2.72,5.59,4.03,3.74,2.58,7.48,5.17,11.22,7.75,7.52,5.19,15.04,10.36,22.55,15.57.01,0,.02.01.03.02,1.21.84.84,2.73-.6,3.05ZM177.19,183.33c.08.06.15.12.23.18,3.49,2.83,7.07,5.58,10.74,8.24,7.34,5.33,14.61,10.75,21.82,16.24,2.02,1.54,5.14,3.09,6.21,5.48,1.55,3.46.52,7.11-.17,10.63-.75,3.83-1.5,7.66-2.25,11.49-1.49,7.67-2.87,15.36-4.23,23.05-1,5.67-1.98,11.34-2.94,17.02-.69,4.1-1.19,7.99-2.66,11.99-1.11,3.02-2.59,1.25-4.4-.14-3.83-2.95-7.66-5.9-11.49-8.86-1.91-1.48-3.83-2.95-5.74-4.43-.97-.75-1.95-1.5-2.92-2.26-.24-.18-.47-.36-.7-.54-.06-.05-.3-.23-.36-.28-.47-.37-.95-.73-1.42-1.1-3.86-2.98-7.72-5.97-11.58-8.96-2.98-2.31-6.12-3.78-8.57-6.71-.38-.46-.78-.93-.97-1.5-.59-1.74.25-4.16.4-5.95.2-2.31.45-4.62.75-6.92.6-4.63,1.36-9.23,2.01-13.85,1.25-8.74,2.3-17.5,3.6-26.23.64-4.31,1.25-8.63,1.94-12.94.36-2.24.69-6.82,3.46-7.59,2.98-.82,7.06,2.17,9.23,3.92ZM158.28,262.05c.33.27.66.55.99.82,3.78,3.14,7.71,6.11,11.59,9.12,7.86,6.09,15.72,12.17,23.59,18.24,1.95,1.5,3.9,3.01,5.84,4.51l.03.02c1.67,1.29,2.49,3.39,2.14,5.47-.26,1.54-.53,3.09-.79,4.63-3.61,20.85-7.05,41.73-10.32,62.64-.44,2.79-3.73,4.05-5.91,2.26-5.11-4.18-12.98-10.59-17.64-14.23-3.73-2.92-7.5-5.8-11.3-8.62-2.85-2.12-5.77-4.13-8.72-6.1-.57-.51-1.14-1.02-1.7-1.55l-.02-.02c-1.52-1.45-2.23-3.54-1.91-5.62.77-4.96,1.51-9.92,2.23-14.89,2.2-15.18,4.2-30.39,6-45.62.26-2.18.59-5.83.87-8.97.21-2.47,3.11-3.68,5.02-2.09ZM195.7,370.66c.69-4.4,1.39-8.8,2.09-13.19,2.45-15.27,4.9-30.55,7.44-45.81.46-2.79.91-5.58,1.36-8.37.23-1.43,1.93-2.09,3.06-1.18,2.51,2.01,5.01,4.02,7.52,6.03,7.82,6.26,15.84,12.27,23.81,18.33,3.92,2.98,7.83,5.95,11.75,8.93,1.84,1.4,3.65,2.89,5.57,4.18l.03.02c2.04,1.37,3.08,3.81,2.68,6.23-.22,1.31-.43,2.62-.65,3.93-3.73,22.66-7.5,45.31-11.24,67.97-.17,1.02-1.23,1.63-2.2,1.26h-.02c-.05-.03-.11-.05-.17-.07-.01,0-.02-.01-.04-.02-.23-.11-.46-.21-.69-.32-.49-.24-.98-.5-1.46-.77-.94-.53-1.84-1.11-2.73-1.72-.43-.3-.85-.6-1.27-.91-.21-.15-.42-.31-.62-.46-.05-.04-.25-.19-.4-.3-.9-.67-1.77-1.38-2.65-2.08-1.8-1.42-3.58-2.85-5.37-4.29-7.13-5.75-14.15-11.63-21.15-17.55-3.53-2.98-7.05-5.97-10.57-8.96l-.05-.04c-3.14-2.67-4.68-6.78-4.04-10.85ZM257.96,415.35c.64-4.06,1.28-8.11,1.92-12.16,3.08-19.38,6.22-38.75,9.33-58.12.36-2.27,2.08-4.08,4.32-4.56.4-.09.79-.17,1.18-.25,4.33-.89,8.66-1.79,12.97-2.81,15.84-3.79,31.58-7.97,47.29-12.27,1.44-.39,2.79.84,2.53,2.31-3.93,22.19-7.86,44.38-11.79,66.57-.76,4.28-3.86,7.78-8.02,9.05-9.37,2.86-18.77,5.65-28.22,8.25-6.85,1.88-13.72,3.73-20.62,5.4-1.87.45-4.99,1.17-7.51,1.74-1.92.44-3.67-1.2-3.37-3.15ZM330.83,394.36c.77-4.38,1.54-8.76,2.31-13.15,3.03-17.21,6.06-34.43,9.09-51.64.72-4.11,3.75-7.44,7.77-8.56,10.97-3.07,21.93-6.2,32.89-9.31,7.52-2.13,15.04-4.24,22.57-6.32,2.72-.75,4.52.91,3.99,3.68-2.71,14.21-5.47,28.4-8.28,42.59-1.39,7.01-2.79,14.01-4.2,21.02-.77,3.82-3.56,6.91-7.28,8.07-5.89,1.83-11.77,3.66-17.66,5.49-12.42,3.86-24.84,7.73-37.26,11.59-2.64.82-4.41-.74-3.93-3.46ZM404.55,299.58c-5.41,1.5-10.82,3.02-16.23,4.55-13.09,3.71-26.17,7.45-39.26,11.18-2.5.71-4.18-.8-3.73-3.37,1.5-8.5,2.99-17,4.48-25.51,1.56-8.89,3.12-17.79,4.61-26.7.74-4.45,1.6-8.89,2.06-13.38.06-.56.11-1.13.15-1.69.21-2.74,2.16-5.04,4.84-5.65h.05c13.45-3.1,26.93-6.02,40.37-9.17,6.38-1.5,12.76-3.02,19.14-4.54,2.07-.49,3.95,1.31,3.55,3.4-.44,2.28-.86,4.56-1.31,6.84-1.51,7.76-2.91,15.54-4.36,23.32-1.96,10.53-3.94,21.05-5.93,31.58-.83,4.41-4.11,7.95-8.43,9.15ZM325.63,141.25c7.11-1.32,14.21-2.66,21.3-4.07,1.79-.36,13.92-2.83,14.96-3.01,3.2-.36,4.96-1.19,9.1-1.37.95-.04,1.91.06,2.83.3l.8.21c.47.12.95.26,1.41.42.46.16.93.33,1.38.52.03.02.08.03.13.06.17.08.35.16.52.23.73.34,1.45.71,2.15,1.09,1.42.78,2.79,1.64,4.14,2.53,5.85,3.82,11.63,7.74,17.43,11.62,1.66,1.11,3.31,2.22,4.97,3.32,2.59,1.81,5.17,3.63,7.75,5.44.78.55,2.14,1.46,2.93,1.99.02.01.03.02.05.03,1.46.99,1,3.25-.72,3.62-3.78.8-7.56,1.67-11.33,2.46-7.16,1.5-14.31,3.01-21.46,4.53-1.42.3-2.84.6-4.27.9-5.43,1.15-11.1-.03-15.62-3.25-.93-.66-1.79-1.28-2.47-1.76-1.44-1.03-11-7.85-11.59-8.27-1.15-.81-2.31-1.61-3.47-2.41-2.32-1.59-4.65-3.17-7-4.72-4.65-3.08-9.37-6.07-14.19-8.89h-.02c-.66-.4-.48-1.39.27-1.53ZM312.32,143.69c2.75-.5,5.6.05,7.96,1.56l.23.15c1.83,1.17,3.69,2.27,5.54,3.42,3.72,2.31,7.39,4.71,11.02,7.16,3.63,2.46,19.82,13.86,21.62,15.15.02.01.04.03.06.04,2.21,1.58,1.49,5.04-1.17,5.6-5.44,1.14-10.87,2.29-16.31,3.42-11.02,2.3-30.85,6.51-39.53,8.35-2.72.58-5.55,0-7.83-1.58l-.04-.03c-7.61-5.29-15.2-10.6-22.79-15.91-3.83-2.68-7.66-5.36-11.5-8.03l-6.71-4.69c-.24-.17-.89-.55-1.14-.72-1.04-.71-.73-2.33.52-2.58,13.73-2.68,27.46-5.32,41.21-7.87,6.29-1.17,12.58-2.31,18.87-3.45ZM206.72,109.26h0c.16-.64.53-1.19,1.04-1.59,7.5-5.72,15.1-11.32,22.88-16.7,6.15-4.26,12.39-8.39,18.75-12.33,3.16-1.96,6.33-3.9,9.53-5.79,2.82-1.67,6.26-3.9,9.67-2.8,1.75.56,3.3,1.76,4.83,2.75.5.32.99.65,1.49.97,1.76,1.35,4.13,3.2,6.24,4.72,2.08,1.5,4.19,2.94,6.32,4.38,4.27,2.88,8.78,5.82,12.71,8.94,2.08,1.65,4.09,3.41,5.97,5.29,1.14,1.13,1.12,2.97,0,4.12,0,0-.01.01-.02.02-.63.64-1.28,1.27-1.9,1.92-2.08,1.55-4.15,3.1-6.2,4.69-4.64,3.59-9.27,7.19-13.89,10.81-8.75,6.86-17.54,13.68-26.23,20.6-.99.78-2.09,1.42-3.28,1.83-.92.31-1.87.55-2.84.68h-.06c-2.68.38-5.39-.3-7.59-1.87-10.82-7.75-21.66-15.48-32.55-23.14-.42-.34-1.09-.89-1.51-1.23-.7-.68-1.39-1.38-2.02-2.11-1.03-1.18-1.75-2.56-1.34-4.16ZM137.48,163.72c.11-1.1.72-2.09,1.59-2.79.43-.35.86-.69,1.29-1.03.16-.12.33-.24.5-.36,6.07-4.39,12.07-8.89,18.02-13.45,12.06-9.24,23.84-18.83,35.77-28.23,0,0,0,0,.01-.01,1.25-.99,2.78-1.6,4.37-1.66.67-.03,1.33.02,1.98.16,1.84.38,3.51,1.3,5.12,2.27.71.51,1.42,1.02,2.13,1.54,2.18,1.59,4.36,3.18,6.54,4.77.18.15.48.39.67.53.52.47,1.01.92,1.63,1.26h0c.35.23.93.59,1.28.82,6.57,4.79,13.18,9.54,19.8,14.27,1.24.88,2.47,1.77,3.71,2.65.71.51,1.33,1.14,1.82,1.86.4.58.72,1.2.97,1.85.01.18.02.37,0,.55-.01.26-.05.55-.13.91-.17.3-.33.59-.5.89h0c-.23.22-.51.37-.82.43-17.82,3.57-35.62,7.32-53.4,11.1-4.3.91-8.63,1.74-12.9,2.81-3.81.96-7.59,2.49-10.43,5.29-3.9,3.85-5.38,9.22-6.29,14.59-6.92-5.46-13.75-11.03-20.66-16.5-.34-.39-.87-1.02-1.22-1.41h0c-.48-.85-.89-1.75-.88-2.74,0-.12,0-.25.02-.37ZM73.86,214.79s0,0,0,0c-.06.17-.1.27.03-.12,0,.02-.02.06-.03.12.04-.11.09-.24.11-.29.02-.04.04-.08.06-.12.45-.68.93-1.35,1.42-1.96,3.29-4.1,7.64-7.49,11.71-10.79,8.82-7.16,17.8-13.86,26.81-20.77,4.47-3.43,8.89-6.93,13.29-10.44,1.61-1.29,3.74-1.79,5.73-1.28.27.07.54.15.81.24.93.54,1.83,1.07,2.76,1.61,1.56,1.4,3.12,2.82,4.72,4.17,3.68,3.1,7.37,6.18,11.09,9.23,2.13,1.75,4.27,3.49,6.42,5.23.2.16.42.3.65.4-.07.47-.13.94-.2,1.4-1.34,9.16-2.69,18.32-4.03,27.47-.02.01-.04.02-.06.03-12.68,7.69-24.81,16.23-36.21,25.73-.67.56-1.32,1.13-1.98,1.71-.46.11-.91.21-1.36.34-.76.23-1.45.57-2.25.7-1.54.25-3.14,0-4.6-.53-1.74-.62-3.31-1.65-4.8-2.72-1.65-1.19-3.23-2.47-4.84-3.71-7-5.43-14.01-10.85-21.04-16.25-.49-.38-1-.77-1.5-1.19-2.39-2-3.46-5.17-2.72-8.19ZM96.28,285.93c-.32-.92-.76-1.79-1.13-2.68-.02-.05-.04-.1-.05-.12-.1-.23-.19-.46-.29-.69-.19-.46-.39-.92-.58-1.38-.39-.92-.77-1.84-1.16-2.76-1.54-3.68-3.08-7.35-4.6-11.04-1.64-3.95-3.22-7.93-4.91-11.86-.36-.83-.71-1.66-1.07-2.49-.19-.44-.38-.88-.56-1.32-.09-.22-.19-.44-.28-.66-.03-.07-.05-.11-.07-.15,0-.01-.01-.03-.02-.05-.74-1.77-1.48-3.55-2.18-5.34-.73-1.84-1.99-5.6-3.1-9.05-.68-2.11,1.81-3.82,3.53-2.42,9.2,7.47,26.58,21.59,28.86,23.5.21.18.45.34.71.48.57.31,1.06.73,1.4,1.28.04.06.07.11.11.17.16.25.32.54.49.81.61,1.3,1.58,3.38,2.18,4.68.15.53.31,1.05.46,1.58.96,3.26,2.11,6.47,3.21,9.68,3.84,11.27,7.9,22.47,12.14,33.59,0,0,0,0,0,0-1.37-.8-2.73-1.6-4.09-2.42-2.66-1.6-5.29-3.24-7.9-4.93-5.14-3.32-10.27-6.65-15.4-9.99-1.46-.95-4.1-1.87-5.71-6.45ZM125.03,346.78c-1.69-.88-3.05-2.29-3.83-4.03v-.03c-5.27-11.7-10.52-23.4-15.65-35.15-.68-1.55-1.35-3.1-2.02-4.64-.59-1.36.97-2.63,2.18-1.78.06.04.12.08.17.12,2.55,1.78,5.11,3.51,7.77,5.12,2.65,1.61,5.33,3.17,8.03,4.7,2.05,1.16,4.11,2.29,6.19,3.4.3.16.6.31.92.44.93.38,1.81.61,2.82.64,1.21,3.12,2.43,6.23,3.68,9.33.71,1.77,1.42,3.54,2.14,5.31.34.85.69,1.69,1.04,2.53.18.45.39.86.62,1.25-.18,1.15-.35,2.3-.53,3.45-.65,4.17-1.32,8.34-2,12.51-.17,1.05-.35,2.11-.52,3.16-.84-.52-1.68-1.04-2.52-1.55-1.79-1.09-3.58-2.2-5.44-3.19-1.01-.54-2.02-1.07-3.04-1.59ZM133.2,369.12c-1.23-3-2.71-5.92-4.06-8.87-1.1-2.41-2.2-4.82-3.3-7.23-.24-.53.36-1.04.84-.73,1.53.99,3.68,2.38,4.75,3.06.83.53,1.66,1.07,2.49,1.61.43.28.86.59,1.3.87-.26,1.47-1.55,8.99-2.03,11.28ZM181.21,436.4c-.14.92-.28,1.84-.42,2.76-.34,2.35-3.18,3.35-4.94,1.76-6.59-5.96-13.19-11.91-19.78-17.87-2.52-2.28-5.05-4.56-7.57-6.84-2.28-2.06-4.6-4.08-6.8-6.22-.99-.97-1.96-1.96-2.82-3.04-.02-.03-.05-.06-.06-.07-.12-.16-.23-.32-.35-.47-.18-.25-.36-.51-.53-.77-.41-.62-.79-1.26-1.12-1.92-.14-.28-.28-.56-.41-.85,0,0,0-.01,0-.02-.06-.15-.11-.29-.17-.44-.26-.72-.49-1.45-.67-2.19-.09-.37-.17-.75-.24-1.12-.03-.19-.07-.39-.1-.59,0-.03,0-.05,0-.08-.08-.77-.13-1.53-.15-2.31-.06-3.06.34-6.11.74-9.14.1-.79.2-1.59.3-2.39.05-.42.11-.84.16-1.26.02-.19.05-.37.07-.56.02-.11.02-.17.03-.2,0-.04.01-.1.03-.2.22-1.59.44-3.18.67-4.77.51-3.45,2.94-18.33,3.11-19.33.32-1.87.63-3.75.94-5.62.35-2.12.7-4.24,1.04-6.35.35-2.18,2.07-2.87,3.82-1.53l.03.02c1.8,1.38,3.48,2.73,5.45,4.2,1.86,1.39,3.72,2.8,5.56,4.22.09.07.19.14.28.22.02.02.03.02.04.03.01,0,.02.01.04.03.22.17.44.34.65.51.47.36.93.73,1.4,1.09.9.7,1.8,1.41,2.69,2.12,7.24,5.72,14.34,11.62,21.38,17.58.48.41.96.82,1.44,1.23,2.78,2.4,4.14,6.06,3.59,9.69-.59,3.9-1.18,7.8-1.76,11.7-1.29,8.66-2.55,17.31-3.8,25.98-.17,1.15-1.44,10.88-1.78,13.01ZM238.53,483.22c-.47,2.66-.9,5.31-1.29,7.98-.23,1.59-2.02,2.41-3.38,1.55l-.03-.02c-.6-.39-1.19-.8-1.76-1.22-.39-.29-.95-.75-1.5-1.21-4.98-4.2-9.72-8.71-14.55-13.08-8.98-8.11-17.95-16.22-26.93-24.33-3.13-2.83-4.65-7.03-4.07-11.21.15-1.09.3-2.19.44-3.28.23-1.86.47-3.71.71-5.57.12-.93,1.54-9.63,1.81-11.44.29-2.01.59-4.02.89-6.03.57-3.86,1.15-7.73,1.73-11.59.69-4.6,1.39-9.2,2.1-13.8.43-2.76,3.72-3.99,5.85-2.18,2.11,1.8,4.46,3.8,6.05,5.15,7.04,5.98,14.1,11.94,21.27,17.77,3.67,2.99,7.34,5.99,11.11,8.84,2.06,1.56,4.31,3.11,6.72,4.23,2.42,1.13,3.82,3.71,3.39,6.35-.65,3.95-1.3,7.9-1.95,11.84-2.25,13.74-4.54,27.47-6.6,41.24ZM304.1,476.41c-3.79,1.31-7.58,2.62-11.37,3.94-5.05,1.65-10.11,3.26-15.18,4.84-7.92,2.46-15.87,4.82-23.83,7.17-.54.16-1.56.37-2.71.59-2.93.55-5.49-2.01-4.96-4.94,3.59-19.94,6.77-39.96,9.92-59.98.35-2.25,2.06-4.03,4.28-4.51.82-.17,1.63-.35,2.45-.53,7.02-1.5,14-3.17,20.95-4.96,12.04-3.09,23.95-6.63,35.84-10.26,1.83-.56,3.6,1.01,3.27,2.9-.65,3.69-1.31,7.39-1.96,11.08-2.6,14.67-5.2,29.35-7.7,44.04-.84,4.92-4.28,8.99-9,10.61ZM382.11,444.25c-.77,3.6-3.37,6.54-6.85,7.73l-1.96.67c-3.01.99-6.02,1.99-9.01,3.06-.67.24-1.33.48-2,.72-.22.08-.45.15-.67.23-4.75,1.63-9.5,3.26-14.25,4.89-.17,0-.34.02-.51.06-.51.12-1.02.39-1.51.57-.59.22-1.19.45-1.78.67-7.1,2.44-14.2,4.87-21.3,7.3-.02,0-.04.01-.05.02-2.33.8-4.66-1.21-4.21-3.63,3.33-18.17,6.54-36.36,9.73-54.56.77-4.38,3.93-7.97,8.18-9.28,10.41-3.22,20.81-6.46,31.21-9.69,7.18-2.23,14.35-4.45,21.53-6.68,2.65-.82,5.22,1.5,4.67,4.22-.5,2.46-1,4.93-1.51,7.39-3.17,15.42-6.41,30.84-9.69,46.24v.06ZM453.13,370.75c-.46,1.75-.87,3.52-1.32,5.26-.75,2.84-1.41,5.7-2.01,8.58-1.31,6.24-2.61,12.49-3.87,18.74-.63,3.13-1.27,6.25-1.9,9.38-.54,2.67-1.04,5.35-1.78,7.97-.33,1.18-.71,2.34-1.18,3.47-.02.04-.04.09-.05.11-.07.16-.14.32-.22.47-.13.28-.27.56-.42.83-.29.55-.61,1.08-.95,1.6-.1.14-.19.28-.29.42-.03.04-.11.14-.15.2-.14.18-.29.36-.44.53-.44.5-.92.98-1.42,1.42-.13.12-.27.23-.4.34-.02.02-.06.05-.09.08-.2.15-.4.3-.6.44-.58.4-1.19.77-1.81,1.11-.53.29-1.07.56-1.62.82-.29.14-.59.27-.88.4.09-.04.42-.17-.02,0,0,0-.02,0-.03.01-.49.16-.99.33-1.48.49-3.3,1.1-6.59,2.2-9.89,3.3-6.53,2.18-13.09,4.28-19.6,6.52-2.97,1.02-5.94,2.04-8.9,3.06-2.25.77-4.48-1.2-3.99-3.53,2.72-12.8,5.39-25.6,8.03-38.41,1.07-5.21,2.13-10.42,3.19-15.64.75-3.68,3.43-6.66,7.02-7.77,1.1-.34,2.21-.68,3.31-1.03,7.68-2.38,15.33-4.97,23.09-7.08,4.61-1.25,12.54-3.63,17.52-5.14,1.88-.57,3.67,1.14,3.17,3.04ZM470.12,293.18c-.41,2.16-.82,4.32-1.23,6.47-1.56,8.12-3.18,16.24-4.83,24.34-1.72,8.01-3.48,16.01-5.3,24-.35,1.53-.7,3.05-1.05,4.58-1.02,4.42-4.3,7.96-8.62,9.32-4.06,1.27-9.09,2.88-12.82,4.12-7.29,2.43-14.6,4.77-21.93,7.05-2.45.76-4.9,1.52-7.35,2.29-2.53.79-4.98-1.42-4.46-4.02.95-4.73,1.89-9.46,2.83-14.19,3.1-15.68,6.13-31.37,9.11-47.07l.05-.28c.84-4.45,4.16-8.02,8.54-9.19.99-.26,1.97-.53,2.96-.79,13.47-3.57,27-6.9,40.58-10.01,2.39-.55,3.98.98,3.53,3.4ZM481.24,228.71c-1.22,8.01-2.51,16-3.87,23.99-1.51,8.86-3.07,17.71-4.68,26.56-.36,1.98-1.87,3.54-3.84,3.97-12.73,2.8-25.38,5.94-37.99,9.24-2.93.77-5.86,1.54-8.78,2.33-2.32.62-4.49-1.39-4.06-3.75,1.75-9.45,3.47-18.91,5.15-28.37,1.4-7.87,2.84-15.74,4.12-23.63.65-3.99,1.29-7.98,1.93-11.97.02-.16.05-.31.08-.47.34-2.08,1.89-3.75,3.94-4.25,3.03-.73,6.07-1.46,9.1-2.2,2.1-.51,4.19-1.04,6.29-1.56,2.22-.45,4.44-.89,6.67-1.31,4.31-.81,8.59-1.79,12.89-2.65,2.43-.49,4.87-.96,7.31-1.41,2.27-.42,3.89-.92,6.14-.33.31.08.63.17.88.38.43.36.52.99.57,1.55.37,4.69-1.12,9.25-1.83,13.89Z"/>
        </g>
        <g id="All">
          <g>
            <path class="cls-4" d="M102.24,273.01c.31.22.54.25.67.13l-3.13-4.44c-.05.24.03.64.23,1.16.47,1.22,1.48,2.63,2.24,3.15Z"/>
            <path class="cls-4" d="M106.89,274.73c-.17-.46-.41-.96-.7-1.42l-.74,1.6c.31.42.63.75.93.95.68.47.91-.03.52-1.13Z"/>
            <path class="cls-4" d="M106.67,272.28l-.32.7c.44.69.81,1.42,1.06,2.12.55,1.54.23,2.25-.73,1.6-.43-.29-.91-.81-1.38-1.44l-.36.78-1.41-2c-.17.2-.49.18-.96-.14-1.07-.73-2.5-2.72-3.18-4.46-.3-.78-.4-1.36-.31-1.71l-.76-1.08-.74-1.04c0,.97.31,2.33.97,4,1.85,4.69,5.58,9.75,8.26,11.44,2.52,1.59,3.35-.31,1.94-4.32-.5-1.42-1.22-2.95-2.07-4.44Z"/>
            <path class="cls-4" d="M105.54,270.43c-1.47-2.25-3.18-4.29-4.73-5.47-1.6-1.23-2.67-1.28-3.06-.34-.05.13-.09.28-.12.44l6.87,9.78,1.62-3.5c-.18-.29-.37-.61-.57-.9ZM101.24,266.1c1.26.96,2.67,2.57,3.98,4.54l-1.27,2.73-5.3-7.6c.37-.77,1.3-.65,2.59.34Z"/>
          </g>
        </g>
        <g class="cls-1">
          <g>
            <path class="cls-4" d="M376.69,205.06l2.38-4.16c.14-.22.16-.45.08-.68-.09-.23-.28-.46-.57-.67s-.68-.4-1.13-.55c-.45-.15-.97-.27-1.51-.34-.54-.08-1.09-.11-1.64-.1-.55.01-1.07.07-1.53.18s-.87.25-1.19.42c-.32.18-.54.38-.65.6l-2.34,4.15c-.18.33-.52.63-.99.89-.47.26-1.07.47-1.77.62s-1.46.24-2.27.26c-.8.02-1.63-.03-2.42-.14l-3.46-.49-.91,1.66c-.32.59-1.12,1.1-2.27,1.43l4.75.69c3.73.54,7.65.45,10.92-.25,3.28-.7,5.62-1.96,6.51-3.5Z"/>
            <path class="cls-4" d="M354.16,206.32l2.26-4.1c.18-.33.51-.63.98-.89.47-.26,1.06-.47,1.75-.62s1.46-.24,2.26-.26c.81-.02,1.63.03,2.43.14l3.49.49.94-1.68c.33-.6,1.15-1.12,2.32-1.47l-4.84-.67c-3.77-.52-7.71-.41-10.95.32-3.23.72-5.51,1.99-6.35,3.52l-2.22,4.09c-.13.21-.15.44-.06.67.09.23.28.45.56.65s.66.39,1.1.54c.44.15.94.26,1.46.34,1.05.14,2.14.11,3.05-.08.91-.2,1.56-.54,1.82-.97Z"/>
          </g>
          <g>
            <polygon class="cls-4" points="306.59 226.75 303.64 216.07 282.79 210.12 281.58 210.4 282.66 214.9 294.47 218.28 296.07 224.31 305.38 227.05 306.59 226.75"/>
            <polygon class="cls-4" points="303.84 227.44 303.84 227.44 294.52 224.69 282.5 221.16 281.11 215.27 280.04 210.77 271.96 212.66 270.82 212.92 273.19 223.4 294.64 229.71 303.84 227.44"/>
          </g>
          <path class="cls-4" d="M427.26,198.23l12.24-12.13-33.14-2.73,20.9,14.86ZM421.43,183.02l15.53,1.21-9.7-7.11-5.83,5.9ZM426,194.63l-12.36-8.82,19.54,1.62-7.18,7.2Z"/>
        </g>
        <path class="cls-7" d="M186.49,323.03c-.14-1.37-.37-2.66-.68-3.86s-.71-2.32-1.19-3.33c-.47-1-1-1.88-1.6-2.65-.59-.77-1.24-1.41-1.94-1.94-1.27-.94-2.54-1.25-3.77-.91-1.21.33-3.25,2.65-3.25,2.65-.08-.02-.43-2.06-.71-3.03s-.62-1.89-1-2.76c-.51-1.18-1.1-2.21-1.75-3.1s-1.37-1.62-2.15-2.2c-1.41-1.05-2.79-1.4-4.11-1.02-.55.16-1.07.42-1.55.79.25-1.73.47-3.17.66-4.51.2-1.34.38-2.59.58-3.94.2-1.34.41-2.78.66-4.51.17-1.13.03-2.02-.11-2.56-.14-.54-.43-1.28-1-1.7-.43-.32-.85-.31-1.22.02-.27.24-.63.77-.8,1.92-.25,1.74-.48,3.34-.7,4.85s-.42,2.91-.62,4.26c-.2,1.36-.39,2.67-.58,3.97-.19,1.31-.38,2.62-.58,3.97-.2,1.36-.4,2.76-.62,4.26-.22,1.5-.45,3.1-.7,4.85-.2,1.53-.31,3.06-.32,4.57-.01,1.51.07,3.02.24,4.49.18,1.48.43,2.89.77,4.22.34,1.33.76,2.58,1.26,3.74.5,1.16,1.06,2.18,1.69,3.05s1.31,1.59,2.05,2.15c1.52,1.15,3.02,1.48,4.46.98.72-.25,1.4-.69,2.04-1.31s1.23-1.42,1.78-2.39c.55-.97,1.02-2.1,1.42-3.37.4-1.27.72-2.68.97-4.23.04-.27.08-.53.12-.83.16-1,.24-1.5.39-2.49.21-1.3.56-2.31,1.08-3.07.54-.8,1.17-1.25,1.92-1.38.76-.13,1.58.12,2.42.75.86.64,1.58,1.56,2.14,2.72.54,1.13.89,2.44,1.06,4.01.08.79.11,1.64.06,2.56-.04.92-.15,1.89-.32,2.92-.32,1.95-.59,3.57-.84,5.08s-.48,2.92-.73,4.44c-.25,1.51-.52,3.14-.84,5.08-.14.86-.12,1.73.07,2.53.19.8.51,1.39.93,1.71.42.32.85.3,1.23-.07.38-.36.66-1.01.81-1.87.33-1.95.6-3.57.85-5.08s.49-2.92.74-4.43c.25-1.51.52-3.14.85-5.08.27-1.6.43-3.15.5-4.64s.03-2.92-.11-4.28M164.72,307.29c.92-.34,1.84-.15,2.82.59.99.74,1.79,1.83,2.42,3.33.32.75.58,1.55.79,2.39.21.84.36,1.74.47,2.7.09.82.13,1.67.12,2.52,0,.85-.07,1.72-.18,2.59-.05.34-.08.51-.13.85,0,.06-.02.15-.03.26-.24,1.78-.8,3.35-1.44,4.5-.69,1.23-1.49,2.03-2.39,2.37-.9.34-1.81.15-2.79-.59-.96-.73-1.74-1.81-2.37-3.32-.32-.75-.58-1.54-.78-2.39-.21-.84-.36-1.74-.46-2.7-.1-.95-.14-1.92-.12-2.9s.11-1.98.26-2.99c.15-1,.34-1.92.59-2.73.24-.81.53-1.53.87-2.14.68-1.23,1.45-2,2.38-2.34"/>
        <path class="cls-7" d="M389.6,342.36c-.25-.99-.63-1.82-1.12-2.5s-1.09-1.18-1.81-1.53c-.7-.34-1.49-.52-2.36-.54s-1.81.12-2.82.42c-.91.27-1.82.67-2.72,1.21-.9.54-1.78,1.21-2.65,2-.85.78-1.66,1.65-2.41,2.6-.76.95-2.11,3.1-2.11,3.1-.16,0-1.48-2.43-2.62-3.11-.76-.46-1.63-.72-2.58-.79-.95-.07-1.99.07-3.12.4-1.02.3-2.02.75-3,1.33s-1.94,1.32-2.87,2.18c-.78.72-1.51,1.51-2.19,2.35.31-1.77.58-3.25.82-4.63.25-1.38.47-2.66.72-4.04.24-1.38.51-2.85.82-4.63.21-1.16,0-1.79-.22-2.11-.22-.32-.65-.66-1.47-.42-.61.18-1.21.63-1.73,1.31-.38.5-.88,1.34-1.09,2.53-.31,1.79-.6,3.44-.87,4.98-.27,1.54-.52,2.99-.77,4.38-.24,1.39-.48,2.74-.72,4.08-.24,1.35-.47,2.69-.72,4.09-.24,1.39-.5,2.84-.77,4.38-.27,1.54-.56,3.19-.87,4.98-.25,1.55-.36,2.99-.33,4.32.02,1.33.18,2.54.47,3.62.29,1.09.7,2.02,1.23,2.79s1.17,1.38,1.92,1.82c.75.44,1.59.68,2.52.73.92.05,1.93-.1,3.02-.45,1.11-.36,2.2-.88,3.28-1.57,1.07-.69,2.13-1.54,3.15-2.55,1.02-1.01,1.98-2.13,2.88-3.36.89-1.22,1.72-2.55,2.46-3.98.75-1.42,1.39-2.89,1.91-4.4s.94-3.05,1.23-4.62c.05-.27.09-.54.14-.83.19-1.01.29-1.52.48-2.53.25-1.32.72-2.55,1.44-3.76.74-1.25,1.62-2.31,2.69-3.22,1.08-.93,2.25-1.58,3.47-1.95,1.24-.37,2.3-.37,3.14,0,.81.37,1.36,1.09,1.66,2.22.3,1.13.25,2.76-.16,4.84-.29,1.47-.54,2.76-.77,3.96s-.45,2.3-.66,3.41-.43,2.21-.66,3.41c-.23,1.2-.48,2.49-.77,3.96-.17.87-.1,1.56.21,2.01.3.45.79.59,1.4.39.61-.2,1.22-.68,1.75-1.4.53-.72.9-1.55,1.07-2.42.39-1.96.71-3.59,1.01-5.12.3-1.52.58-2.94.88-4.46.3-1.52.62-3.16,1.01-5.12.32-1.61.49-3.07.53-4.38.03-1.3-.08-2.45-.33-3.43M358.13,352.28c1.3-1.28,2.62-2.11,4.04-2.54,1.44-.43,2.6-.35,3.54.26.95.61,1.59,1.58,1.95,2.99.31,1.21.34,2.69.09,4.41l-.16.86c-.01.06-.02.15-.04.25-.14.92-.45,1.88-.77,2.78-.32.9-.7,1.77-1.14,2.61-.47.9-.99,1.74-1.54,2.51-.56.77-1.16,1.48-1.79,2.12-1.28,1.29-2.59,2.13-4.02,2.58-1.4.44-2.55.37-3.5-.22-.95-.59-1.59-1.57-1.94-3-.17-.7-.26-1.5-.26-2.37,0-.87.1-1.83.28-2.86.18-1.03.44-2.03.76-3s.72-1.9,1.18-2.79c.47-.9.97-1.73,1.52-2.49.55-.76,1.15-1.46,1.8-2.1"/>
        <path class="cls-7" d="M321.84,173.6c1.2-.81,1.75-1.69,1.62-2.64-.12-.93-.84-1.86-2.13-2.76-.59-.41-1.26-.78-2.03-1.11-.77-.33-1.63-.62-2.57-.87-.92-.24-1.89-.44-2.89-.59s-3.11-.3-3.11-.3c-.03-.08,1.09-1.42,1.08-2.19,0-1.04-.74-2.09-2.18-3.09-.65-.46-1.4-.87-2.24-1.23-.84-.36-1.77-.68-2.78-.95-.85-.22-1.72-.41-2.61-.55,1.39-.29,2.54-.52,3.62-.75,1.08-.22,2.08-.43,3.16-.65,1.08-.22,2.24-.46,3.62-.74.91-.19,1.26-.46,1.39-.65.13-.19.18-.5-.34-.87-.39-.27-.97-.47-1.68-.57-.52-.07-1.32-.12-2.25.07-1.68.34-3.19.66-4.6.95-1.41.29-2.72.56-4,.82s-2.52.52-3.8.78c-1.28.26-2.59.53-4,.82-1.41.29-2.92.6-4.6.95-1.2.26-2.26.57-3.19.92-.93.35-1.71.74-2.36,1.17-1.29.87-1.93,1.83-1.92,2.87.01,1.04.74,2.07,2.15,3.06.72.51,1.56.96,2.5,1.36s1.99.74,3.14,1.03c1.15.29,2.36.51,3.61.67s2.54.25,3.87.28c1.33.03,2.65-.02,3.94-.14,1.3-.12,2.57-.31,3.82-.56.21-.04.42-.09.65-.14.8-.17,1.2-.25,2.01-.42,1.05-.22,2.12-.29,3.29-.23,1.21.06,2.34.25,3.45.57,1.12.33,2.09.77,2.87,1.32.8.56,1.25,1.12,1.34,1.67.09.53-.2,1.01-.88,1.48-.68.47-1.87.88-3.53,1.22-1.57.33-2.87.6-4.09.85-1.22.25-2.35.49-3.57.74-1.22.25-2.53.53-4.09.85-.69.14-1.16.37-1.36.66-.2.29-.09.59.31.87.4.28,1,.48,1.74.57.74.09,1.5.07,2.19-.08,1.57-.33,2.87-.6,4.09-.85,1.22-.25,2.35-.49,3.57-.75,1.22-.25,2.53-.53,4.09-.85,1.29-.27,2.41-.57,3.36-.91.95-.34,1.72-.71,2.32-1.11M301.29,159.56c1.47.36,2.62.84,3.53,1.48.92.65,1.36,1.28,1.34,1.94-.02.66-.44,1.25-1.28,1.81-.72.48-1.77.89-3.1,1.2-.27.06-.41.08-.68.14-.05,0-.12.03-.2.05-1.45.33-3.08.42-4.64.39-1.68-.03-3.26-.23-4.71-.58-1.46-.35-2.61-.84-3.54-1.49-.91-.64-1.35-1.27-1.33-1.93s.44-1.25,1.29-1.81c.85-.55,2.1-.99,3.71-1.33,1.61-.33,3.27-.48,4.92-.45,1.68.03,3.2.22,4.68.58"/>
        <g class="cls-1">
          <path class="cls-4" d="M225.31,440.34l.82-5.11-5.11-7.07-4.82-.72-3.87-5.48-5.3-.66-.71,4.67-4.19-.62-.14.91-.68,4.56,3.43,5.33v.02s.03.05.03.05l-.7,4.6,3.58,5.68v.05s.73,1.12.73,1.12l4.5,1.15,3.94,6.12.95.32v-.05s4.95,1.38,4.95,1.38l.8-5.03h.05s0-.01,0-.01l5.16,1.32.84-5.19.17-1.04-4.44-6.28ZM207.93,444.62l-2.17-3.41.42-2.78,2.18,3.37-.43,2.83ZM203.07,427.92l2.36,3.61-.42,2.76-2.06-3.18.41-2.71-.29-.48ZM207.9,427.17l.43-2.82,2.21,3.23-.44,2.86-2.23-3.27h.02ZM206.46,430.78l-2.13-3.21,2.55.4,2.18,3.26-2.61-.45ZM223.45,438.95l-3.02-.62.47-3,3.01.55-.48,3.04.02.03ZM217.89,448.04l-2.4-3.62,2.87.66,2.47,3.68,1,.24-3.93-.96ZM221.99,448l-2.5-3.69.47-2.99,2.51,3.66-.48,3.02ZM224.12,441.15l2.61,3.73-3.09-.68-2.53-3.67,3.02.62ZM214.71,443.23h0s3.81.86,3.81.86l-3.81-.86ZM218.64,436.96l-2.41-3.48.46-2.94,2.42,3.45-.47,2.97ZM214.5,432.17l-2.75-.48.44-2.88,2.76.44-.45,2.92ZM215.13,434.28l3.2,4.61-.63,4-3.78-.84-3.06-4.62.6-3.87,3.67.72ZM213,441.85h0s-3.03-4.59-3.03-4.59l3.03,4.59ZM206.61,435.61l.43-2.81,2.63.48-.44,2.84-2.62-.52ZM207.19,437.66l2.64.54,2.26,3.44.3.07-3-.66-2.92-4.5.72,1.11ZM218.09,453.22l.47-2.97,2.95.77-.47,2.99-2.95-.79ZM208.61,422.46l.73,1.06,2.68.36,2.3,3.28.93.14.79,1.12.95.15.8,1.13,2.91.46,2.51,3.51,1.01.18.86,1.2-5.02-.89-4.03-5.73-4.61-.71-3.7-5.37.87.11ZM204.89,441l.58-3.68h0s-.56,3.7-.56,3.7l2.88,4.55h0s-2.9-4.56-2.9-4.56ZM216.32,451.73l-2.37-3.65.43-2.92-.76-1.17-.92-.21-.47,2.87h0s-2.7-.65-2.7-.65l.44-2.85,3.64.84,3.15,4.8-.46,2.94ZM226.96,450.26l-3.05-.75.48-3.02,3.07.69-.49,3.07.89,1.3-.89-1.29Z"/>
          <g>
            <path class="cls-4" d="M194.23,247.89c1.04-.51,1.43-2.42.85-4.25-.58-1.84-1.87-2.87-2.9-2.31-1,.54-1.37,2.44-.83,4.21.55,1.8,1.84,2.86,2.87,2.35Z"/>
            <path class="cls-4" d="M179.57,244.88c.53,1.72,1.71,2.72,2.65,2.22.94-.51,1.27-2.31.72-4.06-.54-1.72-1.74-2.71-2.66-2.2-.92.51-1.24,2.33-.71,4.05Z"/>
            <path class="cls-4" d="M177.84,220.75c-.93.61-1.23,2.52-.68,4.27.55,1.76,1.73,2.69,2.67,2.09.93-.59,1.25-2.52.71-4.26-.55-1.77-1.76-2.71-2.7-2.1Z"/>
            <path class="cls-4" d="M192.83,222.65c-.57-1.86-1.89-2.84-2.93-2.17-1.03.66-1.39,2.65-.82,4.48.56,1.8,1.86,2.79,2.88,2.19,1.04-.61,1.44-2.64.87-4.5Z"/>
            <path class="cls-4" d="M195.56,235.77c.51-.3.88-.98,1.01-1.85v-.02c.4-2.69-1.5-5.45-3.06-4.48l-2.49,1.59c-.78.49-2.22-.42-2.76-2.08l-3.35-10.48c-.26-.85-.7-1.53-1.22-1.89-1.68-1.19-3,1.45-2.12,4.17l1.41,4.21c.49,1.66.09,3.64-.65,4.13l-5.39,3.55c-.4.26-.69.82-.8,1.54v.06c-.4,2.47,1.32,5.23,2.71,4.37l2.23-1.39c.79-.49,2.11.53,2.61,2.07l3.24,10.08c.27.83.71,1.52,1.23,1.91h0c1.66,1.26,3-1.06,2.13-3.75l-1.33-4.15c-.49-1.53-.21-3.52.7-4.06l5.9-3.55ZM187.01,237.54c-1.03.57-2.34-.49-2.91-2.35-.56-1.83-.21-3.84.79-4.44,1.03-.63,2.34.39,2.94,2.3.6,1.9.22,3.92-.82,4.49Z"/>
          </g>
          <path class="cls-4" d="M172.53,398.84s-.03-.05-.04-.05q-.57-.5-.81.03c-.73,1.63-1.46,3.27-2.18,4.91-.07.16-.14.18-.32.04-.78-.64-1.56-1.26-2.34-1.88-.17-.13-.3-.29-.43-.52-.13-.24-.26-.48-.4-.7-.1-.16-.1-.25-.05-.36.71-1.58,1.42-3.16,2.13-4.74.05-.11.06-.19-.05-.35-.14-.2-.25-.42-.37-.63-.02,0-.04,0-.04,0-.05.25-.19.2-.39.03-.38-.32-.77-.61-1.15-.92-.1-.08-.17-.11-.21,0-.37.84-.74,1.67-1.13,2.56.24.09.46.19.66.23.19.04.33.16.46.42.07.15.15.29.24.42.24.33.26.59.2.89-.15.67-.28,1.37-.43,2.04-.02.07-.09.15-.15.13-1-.28-2.01-.74-3.01-1.63-.35-.31-.65-.69-.91-1.14-.26-.44-.52-.88-.77-1.33-.34-.62-.38-1.18-.32-1.71.07-.68.34-1.16.57-1.68.31-.69.62-1.37.92-2.06.02-.04.03-.09.04-.13-.16-.27-.31-.53-.49-.83-.05.11-.09.2-.15.3-.52-.41-1.05-.82-1.56-1.24-.15-.12-.21-.11-.27.03-.77,1.72-1.54,3.44-2.31,5.17-.06.15-.13.14-.29.02-.75-.62-1.51-1.21-2.26-1.83-.11-.09-.22-.25-.32-.39-.03-.04-.06-.09-.08-.14-.15-.29-.4-.6-.44-.85-.04-.24.15-.41.23-.61.65-1.44,1.29-2.87,1.93-4.31,0-.01.01-.04.01-.06-.16-.27-.31-.53-.48-.82-.86,1.95-1.71,3.88-2.56,5.84l-1.45-1.16c-.16-.13-.33-.29-.5-.39-.52-.33-.93-.85-1.27-1.55-.09-.18-.1-.27-.05-.39.67-1.48,1.34-2.95,2-4.44.12-.26.18-.58.27-.87-.02-.03-.03-.06-.05-.09-.16-.04-.32-.09-.48-.11-.41-.05-.75.05-1.09.23-.32.18-.43.62-.6.98-.58,1.26-1.15,2.54-1.73,3.83l-.21-.17c-.74-.59-1.47-1.18-2.21-1.77-.15-.12-.28-.26-.38-.46-.15-.29-.41-.6-.44-.86-.03-.25.14-.44.23-.65,1-2.23,2-4.46,3-6.69.06-.15.13-.13.27-.02.66.52,1.31,1.03,1.97,1.56.14.11.27.27.46.45.45-.04.98.02,1.54.28.7.32,1.39.72,2.03,1.51.16.2.3.42.44.65.17.27.32.57.48.84.36.59.57,1.19.61,1.83.13-.3.27-.6.41-.91.24.19.48.36.71.56.2.19.28.13.37-.04.25-.49.49-.98.8-1.39.49-.62,1.13-.94,1.95-.87.99.09,1.94.82,2.87,1.9.58.68,1.06,1.49,1.52,2.33-.48.55-.95,1.11-1.4,1.64-.29-.33-.54-.65-.81-.94-.37-.4-.73-.51-.99-.26-.17.16-.3.4-.47.64.52.41,1.02.68,1.3,1.45.14-.17.33-.17.56.01.14.11.28.21.42.33.12.1.18.09.23-.02.44-1.01.89-2,1.35-3,0,0,.01-.02.04-.05l.19.15c.77.6,1.55,1.22,2.33,1.82.16.12.29.26.4.47.09.18.2.34.3.52.27.48.26.33.1.69-.34.76-.69,1.52-1.03,2.27-.02.05-.03.1-.06.19.44.26.81.64,1.11,1.33.04-.47.26-.26.47-.08.06.05.12.09.17.13.5.4.5.39.7-.08.69-1.6,1.88-2.19,3.6-1.61,1.38.46,2.62,1.6,3.68,3.37.49.82.96,1.67,1.44,2.5.02.04.04.09.07.16-.68.42-1.36.83-2.06,1.26-.27-.51-.61-.99-.78-1.49-.28-.83-1.34-1.68-1.81-1.48-.27.12-.5.29-.61.67l.24.19c1,.78,1.99,1.57,3,2.35.18.14.32.3.45.54s.27.48.42.71c.11.17.1.26.06.37-1.12,2.48-2.23,4.96-3.35,7.45-.06.13-.12.14-.27.02-.82-.66-1.63-1.31-2.44-1.97-.12-.1-.25-.27-.36-.43-.12-.18-.22-.36-.32-.55-.27-.49-.26-.34-.1-.71.7-1.58,1.4-3.15,2.1-4.73.02-.03.03-.05.04-.08h0ZM175.65,396.24c.28-.17.54-.33.8-.49.26-.16.52-.33.78-.49-.46-1-1.32-2.24-1.97-2.87-1.89-1.83-3.94-2.08-5.01-.6-.27.37-.46.84-.68,1.27-.06.12-.12.14-.25.03-.23-.19-.46-.38-.7-.55-.05-.04-.15-.04-.17,0-.23.48-.44.98-.67,1.5l.97.77c-.84,1.88-1.66,3.72-2.48,5.58l2.24,1.8c.83-1.86,1.66-3.72,2.49-5.57l2.13,1.68c-.84,1.87-1.66,3.72-2.5,5.59l2.27,1.82c1.09-2.4,2.17-4.8,3.27-7.23l-4.45-3.5c.18-.38.33-.74.51-1.06.18-.32.44-.51.8-.5.56,0,1.1.47,1.61,1.11.41.5.71,1.08,1,1.72ZM150.21,387.59c.68.54,1.33,1.06,1.98,1.59.13.1.18.1.24-.03.67-1.51,1.35-3.01,2.02-4.52.28-.62.54-1.24.61-2.06.07-.81-.19-1.63-.81-2.29-.31-.33-.65-.6-.98-.81-.93-.62-1.81-.87-2.59-.62-.26.08-.5.21-.78.34.16-.36.31-.67.45-1l-1.89-1.49c-1.04,2.32-2.09,4.64-3.13,6.97l2.12,1.7s.05-.07.07-.11c.57-1.28,1.16-2.55,1.71-3.84.19-.45.46-.74.84-.88.45-.17.94-.2,1.51.1.48.25.83.84.81,1.44-.01.38-.08.74-.2,1.03-.29.73-.62,1.42-.94,2.13-.35.77-.7,1.53-1.05,2.33h0ZM161.5,386.92l-1.78-1.4c.24-.47.43-.95.7-1.33.37-.52.83-.43,1.48.21.21.21.41.45.63.7.36-.41.72-.83,1.09-1.27-.82-1.15-1.67-2.06-2.66-2.4-1.04-.37-1.85-.09-2.43.68-.33.44-.59.99-.86,1.51-.09.18-.17.19-.36.02-.19-.17-.38-.31-.58-.46-.05-.03-.14-.05-.17-.01-.23.48-.44.98-.67,1.5l.95.75c-.82,1.83-1.64,3.64-2.45,5.46.05.06.08.09.11.11.64.51,1.28,1.02,1.92,1.54.13.1.16.04.21-.06.36-.81.73-1.62,1.09-2.43.43-.96.87-1.93,1.31-2.91l.21.16,1.39,1.1c.08.07.16.12.2.02.22-.48.44-.97.67-1.5h0ZM165.28,396.8c-.22-.09-.41-.14-.6-.23-.64-.29-1.23-.97-.84-1.85.39-.9.79-1.79,1.19-2.68.05-.11.11-.08.21,0,.42.34.84.67,1.27,1,.06.05.17.08.19.04.24-.49.47-1,.71-1.51l-1.58-1.24c.48-1.08.96-2.14,1.44-3.19-.04-.05-.06-.08-.08-.09-.67-.53-1.35-1.05-2.03-1.59-.12-.09-.15-.04-.2.05-.44.97-.88,1.95-1.32,2.92-.05.11-.09.11-.2.03-.23-.18-.45-.36-.68-.55-.1-.09-.16-.09-.2.02-.08.2-.17.39-.26.58-.13.28-.26.57-.41.88l.94.74c-.02.06-.03.09-.04.13-.34.78-.7,1.55-1.03,2.33-.26.62-.54,1.23-.75,1.9-.24.74.02,1.57.67,2.32.27.3.56.56.85.8.66.53,1.31.78,1.96,1.05.3.12.45.09.5-.28.07-.53.19-1.03.3-1.57h0Z"/>
        </g>
        <g class="cls-1">
          <g>
            <path class="cls-4" d="M427.54,399.72l-3.33,15.76-19.75,7.4,4.94-23.81,5.64-1.76-.8,3.82-1.7.55-3.35,16.07,12.15-4.44,2.62-12.41,3.59-1.19Z"/>
            <path class="cls-4" d="M436.32,390.68l-4.69,22.02-5,1.87.73-3.46,1.54-.56,3.26-15.33-11.53,3.71-2.64,12.57-3.78,1.35,3.42-16.34,18.69-5.83Z"/>
          </g>
          <g>
            <path class="cls-4" d="M290.79,375.74c.93-.24,1.85-.81,2.65-1.59l-4.67-4.95c-.67.91-1.14,1.96-1.31,3.03-.42,2.52,1.08,4.1,3.34,3.52Z"/>
            <path class="cls-4" d="M308.28,366.94c.18-1.04.04-1.92-.35-2.56l-6.65,7.74c.57.43,1.36.55,2.28.32,2.18-.55,4.3-3.01,4.72-5.5Z"/>
            <path class="cls-4" d="M312.25,359.37l-2.93,3.42c.62.91.87,2.2.6,3.76-.6,3.5-3.58,6.98-6.68,7.78-1.37.35-2.53.12-3.37-.55l-3.24,3.77-2.23-2.37c-1.16,1.19-2.51,2.08-3.93,2.45-3.19.82-5.32-1.4-4.74-4.97.25-1.58,1-3.16,2.03-4.51l-1.08-1.14-1.03-1.09c-1.9,3.06-3.24,6.41-3.78,9.77-1.55,9.72,4.27,15.62,12.84,13.3,8.44-2.28,16.51-11.73,18.15-21.19.59-3.29.33-6.15-.61-8.43Z"/>
            <path class="cls-4" d="M310.75,356.86c-2.2-2.67-5.8-3.83-10.22-2.77-4.45,1.06-8.85,4.16-12.28,8.25-.46.56-.92,1.14-1.36,1.73l10.16,10.83,14.5-16.88c-.22-.41-.5-.81-.8-1.16ZM300.15,356.4c3.63-.87,6.71-.09,8.72,2.18l-11.26,13.1-7.85-8.42c3.06-3.55,6.73-5.98,10.39-6.86Z"/>
          </g>
          <g>
            <g>
              <polygon class="cls-4" points="288.04 467.07 288.03 467.06 288.03 467.07 288.04 467.07"/>
              <path class="cls-4" d="M288.75,462.64c-.34-.79-.53-1.91-.52-2.81l-.09.04c-.31.14-.61.26-.9.37-.03.13-.05.26-.07.39-.28,1.75.07,4.58.87,6.43,1.52-2.55,2.86-5.89,3.15-7.63,0-.01,0-.03,0-.04-.3-.07-.6-.15-.88-.26-.29,1-.89,2.39-1.55,3.51Z"/>
              <polygon class="cls-4" points="275.6 471.22 275.6 471.21 275.59 471.22 275.6 471.22"/>
              <path class="cls-4" d="M276.32,466.41h-.01c-.29-.62-.48-1.47-.55-2.24-.38.22-.77.43-1.17.64-.24,1.77.16,4.57,1,6.4,1.53-2.58,2.87-5.96,3.14-7.72.07-.44.1-.89.1-1.31,0-.17-.01-.32-.03-.47-.26.28-.54.56-.85.84-.24,1.01-.9,2.61-1.63,3.86Z"/>
              <path class="cls-4" d="M284.34,461.77c0,.27-.02.55-.06.84-.18,1.13-1.11,3.31-2.18,4.99,0,0,0,0,0,0h-.01s0,0,0,0c-.63-1.17-.93-2.98-.75-4.11.04-.29.12-.59.21-.89.25-.81.72-1.5,1.22-1.85-.65-.2-1.11-.56-1.43-.96-.59.8-1.09,1.79-1.44,2.89-.21.68-.37,1.36-.47,2.02-.4,2.57.27,6.7,1.64,9.33h0c2.38-3.8,4.45-8.74,4.86-11.3.1-.65.15-1.3.14-1.9,0-.07,0-.14,0-.21-.74.2-1.37.3-1.93.31.11.21.18.49.19.83Z"/>
              <path class="cls-4" d="M282.1,467.61s0,0,0,0c0,0,0,0,0,.01h.01Z"/>
            </g>
            <path class="cls-4" d="M292.44,455.72c-.55-2.1.44-12.21.54-13.77.47-7.37-.39-15.13-4.61-14.01h0c-4.12,1.1-7.95,11.1-9.53,18.04-.68,2.99-1.81,8.31-2.58,10.81-.46,1.48-1.64,4.04-1.72,4.24-4.1,3.52-5.14,4.89-4.96,5.1.08.09,1.56-.64,3.28-1.5,1.33-.67,2.83-1.38,3.84-2.15,3.95-2.99,4.04-6.85,4.67-7.05.72-.23.1,1.12.42,2.31.42,1.59,1.95,3.05,6.39,1.06-1.02-.75-.56-5.17.2-5.39.57-.17-.28,2.32,1.67,4.02,1.78,1.54,6.02.88,6.08.7.29-.9-2.5-1.72-3.68-2.4ZM283.43,443.48c-.79.22-1.24-.79-1.02-2.25s1.05-2.84,1.84-3.06,1.24.8,1.01,2.27-1.05,2.82-1.83,3.04ZM285.72,445.4c-.32.09-.53-.19-.46-.63s.39-.87.71-.96.53.19.46.63-.39.87-.71.96ZM288.66,442.01c-.78.22-1.22-.79-.99-2.25s1.05-2.83,1.83-3.04,1.22.8.98,2.26-1.05,2.81-1.83,3.03Z"/>
          </g>
          <path class="cls-5" d="M453.42,237.53l4.23-3.58c.48-.41.77-.22.66.41s-.6,1.48-1.08,1.88l-4.23,3.58c-.48.41-.78.23-.67-.41.12-.64.6-1.48,1.09-1.89ZM452.52,242.45l4.23-3.59c.48-.41.77-.22.66.41s-.6,1.48-1.08,1.88l-4.23,3.6c-.48.41-.78.23-.67-.41s.6-1.48,1.09-1.89ZM459.86,263.15l1.01-5.48c.12-.62-.08-1.3-.44-1.52-.36-.22-.74.12-.86.74l-1.01,5.49c-.11.62.08,1.3.44,1.51.36.21.74-.12.86-.74ZM458.09,256.01l-1.01,5.5c-.11.62-.5.96-.86.75-.36-.21-.56-.89-.45-1.52l1.01-5.51c.12-.63.5-.96.86-.74.36.22.56.9.44,1.53ZM460.36,241.88l-7.41,6.32c-.06.05-.12.1-.19.14l-1.55,1.32c-.48.41-.78.23-.67-.4s.6-1.48,1.08-1.89l4.23-3.6c.06-.05.12-.09.17-.13l3.02-2.57c.48-.41,1.16-.55,1.52-.33.36.22.27.73-.21,1.14ZM463,242.24l3.13,1.95c.35.22.26.73-.21,1.13-.47.4-1.14.55-1.5.33l-3.14-1.95c-.36-.22-.27-.73.21-1.14.47-.41,1.15-.55,1.51-.33ZM462.48,247.32l-3.16-1.94c-.36-.22-1.04-.07-1.52.34-.48.41-.57.92-.21,1.14l3.17,1.94c.36.22,1.03.07,1.51-.34.47-.41.57-.91.21-1.13ZM458.81,250.48l-3.18-1.93c-.36-.22-1.05-.07-1.53.34-.48.41-.57.92-.21,1.14l1.28.77s.02.02.04.02l5.58,3.37c.36.22.74-.11.86-.74s-.08-1.31-.44-1.53l-2.36-1.44s-.02-.02-.04-.02ZM455.29,254.33l-1.01,5.52c-.01.08-.03.15-.06.22l-.72,3.96c-.11.63-.6,1.47-1.07,1.89-.48.42-.77.24-.66-.38l1.78-9.72c.01-.08.04-.16.06-.25l.37-2.02c.12-.63.5-.96.87-.74.36.22.56.91.45,1.53ZM449.19,268.73l-4.24,3.68c-.48.42-.79.25-.67-.38s.6-1.48,1.09-1.9l4.24-3.67c.48-.42.78-.24.66.38s-.6,1.47-1.08,1.89ZM445.83,267.53l4.25-3.67c.48-.42.96-1.26,1.08-1.89s-.18-.8-.66-.39l-4.25,3.66c-.48.42-.97,1.27-1.09,1.9s.19.8.67.38ZM452.04,257.1c-.1.53-.46,1.22-.86,1.67-.06.08-.13.16-.22.23l-7.49,6.45c-.49.42-1.19.59-1.56.37-.37-.21-.28-.73.21-1.15l4.88-4.19s.09-.09.13-.13l4.25-3.65c.48-.41.78-.24.66.39ZM436.05,262.47l3.32,1.9c.38.22,1.08.05,1.57-.37.49-.42.58-.94.21-1.15l-3.31-1.91c-.38-.22-1.09-.05-1.58.37-.5.42-.59.94-.21,1.16ZM443.17,261.13l-3.3-1.91c-.38-.22-.28-.74.21-1.16.49-.42,1.19-.58,1.57-.36l3.28,1.92c.37.22.28.73-.21,1.15-.49.42-1.18.58-1.56.36ZM441.6,252.19l5.77,3.41s.07.05.1.07l1.22.72c.37.22.28.73-.21,1.15-.48.42-1.18.58-1.55.36l-3.27-1.92s-.07-.04-.09-.07l-2.39-1.41c-.38-.22-.59-.92-.47-1.56s.51-.98.89-.76ZM441.48,248.62l1.02-5.64c.12-.64.52-.98.89-.75.38.23.59.93.47,1.57l-1.02,5.63c-.12.64-.51.98-.89.75-.38-.22-.59-.92-.47-1.57ZM445.4,244.74l-1.02,5.61c-.12.64.09,1.34.47,1.56.37.22.77-.12.88-.75l1.02-5.6c.12-.64-.09-1.34-.47-1.57-.37-.23-.77.11-.89.75ZM450.82,240.71l-1.19,6.55-2.36,4.79,1.79-9.85c.12-.64.6-1.49,1.09-1.9.49-.41.79-.23.67.41ZM449.63,247.26l-2.36,4.82c-.11.63.09,1.32.46,1.54.37.22.76-.12.88-.75l1.01-5.58s0-.02,0-.03Z"/>
        </g>
        <g>
          <path class="cls-4" d="M400.98,267.75l-.03-.03-9.28-16.16c-.05-.09-.22.02-.24.14-.09.49-1.03,3.28-4.02,4.05-3,.78-3.48.47-5.99,1.13-2.51.65-1.99.99-2.68,1.97l-1.31,1.83,7.16,12.16,3.8-1.01c1.13-.3,2.07-.02,2.5.76l1.68,2.85,7.86-2.11.75-3.99c.11-.6.04-1.15-.2-1.58ZM391.94,262.22v-.04c-1.46-.23-2.16-2.67-2.16-2.67,3.17-.83,4.61,2.38,4.61,2.38,0,0-.99.51-2.45.32Z"/>
          <path class="cls-4" d="M366.37,276.05c-.96,1.34-1.22,2.77-.65,3.7l4.55,7.5c.42.67,1.31.92,2.34.65l14.3-3.88-11.83-20.06-8.69,12.1Z"/>
        </g>
        <g>
          <path class="cls-4" d="M436.97,322.01c-.94-.29-2.1-.26-3.45.07-5.03,1.23-8.83,4.92-11.34,11.07-.91,2.28-1.65,4.2-2.21,5.8-.24.71-.4,1.28-.51,1.76-.49,2.24-.17,3.79.94,4.62,1.13.8,2.78.9,4.93.29,2.58-.73,4.78-1.99,6.59-3.81,1.82-1.84,3.33-4.27,4.56-7.27.75-1.84,1.44-3.72,2.1-5.63.22-.68.38-1.24.48-1.67.31-1.44.27-2.6-.11-3.49-.38-.91-1.04-1.5-1.99-1.75ZM433.72,330.25c-.53,1.52-1.2,3.31-2.04,5.39-.61,1.52-1.35,2.71-2.2,3.59-.85.88-1.77,1.46-2.77,1.74-1.73.47-2.4-.25-1.96-2.22.1-.47.24-.93.41-1.37.78-2.15,1.47-3.95,2.11-5.46.62-1.53,1.35-2.71,2.19-3.58.86-.87,1.79-1.43,2.78-1.68,1.68-.42,2.3.32,1.89,2.22-.1.47-.24.93-.4,1.38Z"/>
          <path class="cls-4" d="M456.19,318.14c-.9-.64-2.25-.75-4.08-.31l-6.66,1.63c-.18.04-.35.15-.53.33-.19.19-.33.39-.4.63l-7.87,21.02c-.07.22-.09.4-.04.54.08.12.2.15.4.09l3.51-.98c.18-.05.36-.16.54-.35.2-.19.32-.4.41-.64l2.61-7.05,3.4-.91c2.18-.59,4.01-1.59,5.48-3.03,1.49-1.44,2.68-3.36,3.57-5.77.21-.57.37-1.11.48-1.6.37-1.74.1-2.93-.81-3.59ZM451.99,324.43c-.36.92-.84,1.67-1.47,2.27-.62.6-1.26.99-1.97,1.17l-2.88.75,2.13-5.72,3-.75c.67-.17,1.13-.13,1.34.12.21.24.26.65.14,1.23-.06.26-.15.57-.27.92Z"/>
        </g>
        <path class="cls-4" d="M362.6,430.99c-1.14,1.75-2.86,3.15-4.53,3.69l-2.72.86,1.88-9.48-5.37,8.32c-1.14,1.77-2.9,3.2-4.61,3.74l-2.77.88,2.63-14.2,5.64-1.7-1.84,9.61,7.24-11.23h0s5.49-1.66,5.49-1.66l-1.95,9.56,7.81-12.04c.32-.49.42-1.02.26-1.35-1.7-3.63-5.81-5.19-11.26-3.52-8.44,2.59-16.46,11.63-17.96,20.25-1.46,8.4,4.06,12.88,12.19,10.24,7.97-2.6,15.78-11.25,17.54-19.49.29-1.34.4-2.6.35-3.75-.01-.35-.48-.28-.74.12l-7.25,11.17h0Z"/>
        <path class="cls-4" d="M326.04,285.36l-2.6-12.87c-.14-.71-.77-1.05-1.57-.87l-2.88.66-3.04.7-2.91.67c-.34.08-.63.48-.57.78l2.22,10.83-4.54,1.1-2.24-10.27c-.16-.72-.81-1.06-1.63-.87l-2.97.69-3.14.72-3,.69c-.35.08-.65.49-.58.79l3.04,13.74-8.06,16.95c-.17.35.02.62.37.53l2.97-.78,3.1-.81,2.94-.77c.82-.22,1.64-.92,2.05-1.76l5.85-11.97,4.45-1.11-6,12.57c-.16.34.01.61.35.52l2.88-.75,3.01-.79,2.85-.74c.8-.21,1.6-.9,2.01-1.73l7.57-15.45h0s.04-.09.04-.09c.06-.12.08-.24.06-.33Z"/>
        <g>
          <path class="cls-4" d="M371.22,147.8c.36.42.79.78,1.26,1.1,1.18.8,2.68,1.37,4.36,1.98.1.03.19.07.29.1h0c1.59.58,3.32,1.21,4.85,2.09.7.4,1.36.86,1.94,1.38.24.21.83.33,1.29.24.02,0,.04,0,.06-.01,5.39-1.1,7.09-3.92,3.74-6.25-3.33-2.32-10.31-3.24-15.54-2.08-.63.14-1.2.3-1.72.48-.65.23-.85.61-.54.97Z"/>
          <path class="cls-4" d="M382.91,155.4c-.52-.59-1.11-1.09-1.76-1.52-.22-.14-.44-.28-.66-.41-1.37-.79-2.93-1.36-4.54-1.95-.09-.03-.17-.06-.26-.09-1.67-.61-3.39-1.26-4.76-2.18-.65-.44-1.2-.93-1.65-1.51-.26-.34-1.41-.46-1.82-.17l-10.77,7.53c-.08.06-.07.13,0,.19h0s0,0,0,0c.01.01.04.02.06.03.08.04.2.08.34.08l24.58.66c.9.02,1.53-.3,1.22-.67Z"/>
        </g>
        <g>
          <g>
            <path class="cls-4" d="M121.08,322.31s-.3.56-.65,1.22l-1.4,2.59c-.54,1.09.78,3.17,2.23,4.83l4.04,4.65c.35.41,1.73,2.03,2.04,1.46.18-.31-.25-1.17-.62-1.6l-4.61-5.34c-.85-.99-.87-1.5-.62-1.89l1.11-2.07,2.53,3c.86,1.02,1.67,1.66,1.93,1.21s-.39-1.37-1.26-2.41l-2.79-3.34-1.92-2.3Z"/>
            <path class="cls-4" d="M121.3,322.55c-.69-.82-1.46-1.49-1.71-1s.46,1.57,1.06,2.29"/>
          </g>
          <g>
            <path class="cls-4" d="M132.99,341.04l.65-1.06,1.42-2.34c.6-.98-.54-2.92-1.88-4.53l-3.87-4.7c-.36-.43-1.77-2.19-2.09-1.58-.19.34.26,1.25.63,1.72l4.48,5.39c.78.94.78,1.42.52,1.79l-1.14,1.91-2.35-2.78c-.83-.98-1.62-1.6-1.88-1.16s.38,1.32,1.21,2.3l2.58,3.03,1.7,1.99Z"/>
            <path class="cls-4" d="M132.81,340.84c.59.7,1.27,1.27,1.53.86s-.34-1.34-.86-1.96"/>
          </g>
        </g>
        <g>
          <path class="cls-5" d="M130.83,210.58c-.21,1.52-1.28,2.99-2.65,4s-3.14,1.64-5.09,1.73l.54,2.28c2.64-.14,4.98-.95,6.9-2.35,1.93-1.41,3.14-3.42,3.62-5.6l-1.89-.21-1.43.14Z"/>
          <path class="cls-5" d="M124.03,220.75l-1.82-8.04c.97-.05,1.93-.32,2.6-.82s1.2-1.13,1.31-1.89l5.43.51,5.97.43c.29.02.72-.3.71-.52l-.02-.45c-.14-3.36-1.91-6.7-4.95-9.28l1.7-1.29.28-.22c.14-.11,0-.23.13-.34s0-.23-.16-.34,0-.23-.16-.34-.3-.24-.45-.13c-.15-.12-.29,0-.45-.13-.29,0-.44.1-.59-.02l-.28.22-1.69,1.3c-.89-.48-1.64-1.06-2.67-1.43l2.09-1.63.28-.22c.14-.11-.01-.23.13-.34q-.01-.23-.16-.34c-.15-.12-.01-.23-.16-.34s-.3-.23-.44-.12c-.15-.12-.29,0-.44-.12-.29,0-.43.1-.43.1l-.28.22-2.63,2.06c-3.61-1.11-7.42-1.32-10.97-.54-3.5.77-6.22,2.52-8.2,4.81-1.82,2.37-2.42,5.1-1.97,7.85.45,2.75,2.2,5.57,4.84,7.72l8.58,7.01c.28.23.69.16.82.06l4.08-2.97s-.01-.21-.02-.43ZM112.49,215.84c-2.1-1.71-3.56-3.9-3.96-6.02-.54-2.25-.03-4.45,1.31-6.41,1.35-1.98,3.42-3.42,6.1-4.2s5.64-.8,8.63-.15l-2.97,2.32-.27.21c-.13.1.01.22-.12.32q.01.22.16.33c.15.12.01.22.16.33s.29.23.43.13c.15.12.28.01.43.13q.28.01.42-.09l.27-.21,3.81-2.96c1.61.61,2.79,1.32,3.99,2.26,2.26,1.76,3.67,3.95,4.21,6.31,0,.22-.13.33-.42.31l-8.92-.66c-.31-.45-.61-.9-1.05-1.25s-1.16-.71-1.73-.95c-.57-.24-1.41-.28-1.97-.31-.69.08-1.38.16-1.92.35s-1.07.6-1.46.91c-.38.52-.63.94-.73,1.47s-.08.96.09,1.51.47.99.91,1.55c.3.45,1,.81,1.57,1.05l1.81,7.8v.21s-1.43,1.06-1.43,1.06c-.13.1-.4.08-.55-.04l-6.77-5.31ZM122.77,210.26c-.27.2-.68.29-.96.27-.41.09-.83-.04-1.11-.06-.42-.13-.71-.36-1-.59s-.44-.56-.33-.88c-.01-.22.11-.53.23-.85.26-.2.53-.41.94-.49s.69-.07,1.11.05.7.14.99.37c.44.35.59.68.62,1.12.16.33-.1.75-.5,1.06Z"/>
        </g>
        <g id="All-2" data-name="All">
          <g id="Group-45">
            <polygon id="Path" class="cls-2" points="274.11 93.5 263.05 101.8 267.48 111.34 274.11 93.5"/>
            <polygon id="Path-2" data-name="Path" class="cls-4" points="274.11 93.5 249.75 98.73 263.05 101.8 274.11 93.5"/>
            <polygon id="Path-3" data-name="Path" class="cls-2" points="250.91 110.92 242.38 117.32 265.69 112.76 250.91 110.92"/>
            <polygon id="Path-4" data-name="Path" class="cls-4" points="242.38 117.32 250.91 110.92 247.83 100.09 242.38 117.32"/>
            <polygon id="Path-5" data-name="Path" class="cls-9" points="252.83 109.48 267.48 111.34 263.05 101.8 252.83 109.48"/>
          </g>
          <polygon id="Path-6" data-name="Path" class="cls-2" points="248.98 98.21 252.31 109.87 263.39 101.55 248.98 98.21"/>
        </g>
        <g>
          <path class="cls-4" d="M229.27,364.86l-2.09,4.02c-.05.11-.08.26-.07.44l.79,10.35,2.86-.03-1.08-14.45c-.03-.33-.29-.55-.41-.33Z"/>
          <path class="cls-4" d="M233.25,358.35c-.03-.34-.3-.55-.42-.33l-2.12,4.09c-.05.11-.08.27-.07.45l1.27,17.09,2.89-.03-1.54-21.25v-.02Z"/>
          <path class="cls-4" d="M230.52,343.33c.06.05.12.13.17.22l8.5,16.16c.1.19.14.43.1.61l-2.76,16.25c-.03.18-.14.3-.26.31l-10.96.14c-.06,0-.13-.02-.19-.07s-.12-.13-.17-.22l-8.31-15.73c-.1-.18-.14-.42-.11-.6l2.47-16.31c.03-.19.13-.31.25-.32l11.06-.53c.06,0,.13.01.2.07v.02ZM230.91,340.88c-.35-.28-.72-.43-1.08-.41l-11.07.56c-.7.03-1.23.7-1.39,1.76l-2.44,16.3c-.15,1.03.08,2.27.61,3.28l8.29,15.69c.26.5.58.9.93,1.18s.7.43,1.05.43l10.95-.11c.71,0,1.25-.63,1.43-1.66l2.78-16.24c.18-1.06-.04-2.33-.59-3.37l-8.52-16.21c-.27-.52-.6-.93-.96-1.21h.01Z"/>
          <path class="cls-4" d="M228.46,350.34l-2.48-1.98c-.18-.14-.38-.11-.48.09l-8.48,16.75,2.18,4.12,9.4-18.39c.09-.18.02-.48-.13-.6h-.01Z"/>
          <path class="cls-4" d="M232.81,353.82l-2.49-1.99c-.18-.14-.38-.11-.48.09l-9.77,19.04,2.18,4.12,10.7-20.67c.09-.18.02-.48-.13-.6v.02Z"/>
        </g>
        <g>
          <path class="cls-4" d="M242.18,188.74l-2.84-1.97c-.84-.59-2.49-.85-3.69-.59l-5.82,1.26c-1.2.26-2.84,0-3.67-.59l-10.83-7.67c-.8-.57-2.4-.82-3.57-.57l-3.93.85c-1.17.25-1.49.92-.7,1.49l11.34,8.15c.82.59,2.44.85,3.64.59l3.22-.7c1.2-.26,2.72.04,3.55.63l2.16,1.53c.84.59,2.5.87,3.71.61l6.81-1.47c1.2-.26,1.46-.95.61-1.54h0Z"/>
          <path class="cls-4" d="M231.65,174.31c1.17-.25,2.79,0,3.61.56l11.12,7.6c.85.58,2.51.84,3.7.58l4-.87c1.19-.26,1.47-.94.61-1.52l-11.89-8c-.83-.56-2.45-.8-3.62-.55l-3.02.65c-1.17.25-2.78,0-3.6-.55l-2.1-1.43c-.81-.55-2.41-.8-3.57-.54l-6.58,1.42c-1.16.25-1.41.9-.61,1.45l2.69,1.87c.81.56,2.41.81,3.59.56l5.68-1.23h0s0,0,0,0Z"/>
          <path class="cls-4" d="M233.63,179l2.67,1.84c.87.6.57,1.31-.67,1.58l-3.83.83c-1.25.27-2.96,0-3.82-.61l-2.64-1.85c-.85-.6-.54-1.3.69-1.57l3.8-.82c1.24-.27,2.94,0,3.8.6Z"/>
        </g>
        <g>
          <path class="cls-4" d="M244.67,257.85l1.47,2.02c-.22.34-.27.33-.54.97-.36.76.35,1.73.75,1.06.9-1.5,1.87-1.75,2.94-.24.55.77.9,1.98.71,3.55l-.45,3.63c-.12.99-.27,1.51-.52,1.73-.82.74-1.85.55-2.76-.58-.74-.93-1.03-2.16-.94-3.18.09-.98.53-1.76,1.24-1.87.62-.1,1.22.44,1.65,1.47.31.9,1.08.56.79-.29-.7-2.03-1.7-3.07-2.84-2.92-1.01.13-1.8,1.18-1.96,3.25-.13,1.74.59,3.9,1.46,4.98.8,1.01,1.78,1.61,2.66,1.53.49-.04.95-.16,1.34-.5l.66,3.79c.11.65-.02.99-.26,1.51l-2.71,6.03c-.22.48-.42.63-.71.63-.29,0-.72-.23-1.31-.83l-4.07-4.1c-.41-.41-.73-1.45-.63-2.06.04-.25.13-.51.25-.76.52.58,1.09,1.02,1.62,1.23.56.22,1.09.18,1.54-.21l1.88.95c.64.32.71-1.01.23-1.36l-1.2-.91.37-3.46c.09-.75-.76-1.41-.92-.67l-.66,2.94c-.14.64-.43.86-.78.85-.32,0-.69-.22-1.03-.47-.51-.39-.88-.85-1.07-1.28-.19-.43-.28-.84-.2-1.51l.87-9.17c.05-.53-.7-1.03-.78-.45l-1.3,8.87c-.12.82-.36,1.05-.83.96-.24-.04-.52-.2-.79-.41-.43-.32-.69-.68-.84-1.01-.15-.33-.22-.7-.18-1.3l.36-7.38c.04-.73-.83-1.12-.9-.35l-.6,6.18c-.45-.06-.87-.32-1.14-.68-.33-.44-.52-.95-.46-1.86l.56-7.68c.12-1.62.74-1.5,1.44-1.12l1.08.58c.18.1.36.07.49-.09l1.13-1.29c.21-.24.37-.21.73.14l1.56,1.52c.18.17.38.21.55.11l1.82-1.11c.45-.27.86.12,1.23.63ZM244.14,255.46c-.55-.29-.98-.23-1.33-.02l-1.55.95-1.28-1.24c-.66-.64-1.47-.81-2.02-.19l-.92,1.04-.8-.42c-.64-.34-1.28-.49-1.83-.13-.54.36-.88,1.24-.97,2.45l-.57,7.67c-.11,1.49.32,2.95,1,3.86.5.67,1.11,1.06,1.73,1.2.05.64.19,1.27.43,1.82.36.83.88,1.44,1.48,1.89.54.41,1.12.68,1.66.67.2,0,.4-.05.59-.16-.08.44-.21,1.02-.33,1.71-.27,1.62.34,3.58,1.35,4.59l4.08,4.12c.73.74,1.41,1.18,2.04,1.2.63.01,1.16-.46,1.51-1.24l2.71-6.05c.26-.59.64-1.58.38-3.01l-.96-5.41c.08-.33.15-.7.2-1.12l.44-3.63c.26-2.15-.28-4.26-1.22-5.6-.8-1.15-1.85-1.57-2.83-1.35l-1.82-2.49c-.32-.44-.65-.81-1.2-1.09Z"/>
          <g>
            <path class="cls-4" d="M230.83,290.29c-.22-.17-.38-.4-.46-.68-.08-.28-.09-.59-.02-.94l.73-3.88.06,1.4-1.22-6.02c-.05-.25-.04-.47,0-.68.05-.2.15-.35.28-.42.13-.08.3-.04.49.1.14.11.26.26.35.45.09.19.17.44.23.75l.82,4.13-.28-.22,1.97-1.98c.15-.15.3-.24.42-.26.13-.02.26.03.41.14.19.14.32.33.4.55.08.23.1.45.07.67-.03.22-.12.41-.27.55l-2.86,2.85.49-.98-.72,3.89c-.14.73-.43.92-.88.56Z"/>
            <path class="cls-4" d="M236.78,294.95c-.62-.48-1.12-1.11-1.51-1.88-.39-.77-.65-1.63-.77-2.57-.12-.94-.09-1.89.08-2.86.14-.74.33-1.35.58-1.83.25-.48.55-.83.9-1.04.35-.21.73-.29,1.15-.23.42.06.86.27,1.32.62.62.48,1.13,1.09,1.52,1.85.39.75.65,1.6.78,2.52.13.93.11,1.89-.06,2.87-.13.75-.32,1.37-.58,1.86-.25.49-.56.85-.91,1.08-.35.22-.74.31-1.16.25s-.87-.27-1.34-.64ZM237.1,293.15c.35.27.67.38.96.32.29-.06.54-.27.76-.64.22-.37.38-.88.5-1.53.17-.99.16-1.87-.03-2.63-.19-.76-.55-1.35-1.08-1.75-.34-.26-.66-.37-.95-.32-.29.05-.54.26-.75.62-.21.36-.38.87-.5,1.52-.18.98-.17,1.85.02,2.63.19.78.55,1.37,1.07,1.78Z"/>
            <path class="cls-4" d="M243.69,300.33c-.45-.35-.83-.75-1.15-1.2-.31-.45-.56-.94-.73-1.47-.17-.53-.27-1.1-.3-1.72-.03-.61.02-1.27.14-1.96l.79-4.6c.06-.35.16-.57.31-.66.15-.09.34-.05.56.13s.37.39.46.66c.09.27.1.58.04.93l-.78,4.62c-.13.78-.12,1.46.05,2.04.17.58.47,1.04.92,1.39s.82.41,1.11.19c.3-.22.51-.72.64-1.51l.77-4.65c.06-.35.16-.57.31-.66.15-.09.33-.05.55.12s.37.39.46.66.1.58.04.93l-.76,4.64c-.15.93-.38,1.63-.69,2.1-.31.47-.7.7-1.15.7-.46,0-.99-.24-1.59-.71Z"/>
          </g>
        </g>
        <g>
          <polygon class="cls-4" points="211.5 151.98 203.57 158.21 186.44 157.29 192.31 161.8 211.32 157.82 211.5 151.98"/>
          <polygon class="cls-4" points="201.25 152.6 191.95 145.95 196.96 141.96 178.39 143.56 177.04 157.79 184.47 151.89 201.25 152.6"/>
        </g>
      </g>
    </g>
  </g>
</svg>